<svg id="Camada_1" data-name="Camada 1" xmlns="http://www.w3.org/2000/svg" viewBox="0 0 537.51 54.55"><defs><style>.cls-1{fill:#deeffb;}.cls-2{fill:#123d64;}.cls-3{fill:#fff;}</style></defs><path class="cls-1" d="M0,0H213c76.71,0,75.43,44.89,75.43,44.89H0Z"/><path class="cls-2" d="M0,54.55V39.77H216c72.41,0,43-39.77,126.71-39.77H537.51V54.55Z"/><path class="cls-2" d="M15.41,7.58h1v2h2.22v-2h1v4.93h-1V10.44H16.44v2.07h-1Z"/><path class="cls-2" d="M20.52,7.58h3.26v.85H21.55V9.61h2.11v.81H21.55v1.24h2.23v.85H20.52Z"/><path class="cls-2" d="M25.93,7.58h1.21l1.72,4.93H27.77l-1.22-4h0l-1.23,4H24.21Zm-.68,3H27.8v.78H25.25Z"/><path class="cls-2" d="M29.36,7.58h1.88a2.62,2.62,0,0,1,1.27.28,1.89,1.89,0,0,1,.8.83A2.87,2.87,0,0,1,33.59,10h0a3.08,3.08,0,0,1-.27,1.34,2,2,0,0,1-.81.85,2.62,2.62,0,0,1-1.27.29H29.36Zm1.76,4.08a1.46,1.46,0,0,0,.78-.19,1.15,1.15,0,0,0,.48-.54,2.2,2.2,0,0,0,.16-.9h0a1.86,1.86,0,0,0-.17-.86,1.15,1.15,0,0,0-.48-.54,1.44,1.44,0,0,0-.77-.19h-.73v3.23Z"/><path class="cls-2" d="M36.6,12.29a2.11,2.11,0,0,1-.82-.88,2.93,2.93,0,0,1-.29-1.36h0a2.9,2.9,0,0,1,.29-1.36,2.07,2.07,0,0,1,.83-.88,2.72,2.72,0,0,1,2.52,0,2.16,2.16,0,0,1,.83.89A3,3,0,0,1,40.25,10h0A3,3,0,0,1,40,11.4a2.21,2.21,0,0,1-.82.89,2.76,2.76,0,0,1-2.54,0Zm2-.77a1.43,1.43,0,0,0,.45-.59,2.16,2.16,0,0,0,.16-.88h0A2.21,2.21,0,0,0,39,9.15a1.34,1.34,0,0,0-.46-.58,1.32,1.32,0,0,0-1.4,0,1.27,1.27,0,0,0-.46.58,2.21,2.21,0,0,0-.17.89h0a2.21,2.21,0,0,0,.17.89,1.32,1.32,0,0,0,.45.58,1.36,1.36,0,0,0,1.42,0Z"/><path class="cls-2" d="M40.91,7.58h3.23v.85h-2.2V9.75h2v.82h-2v1.94h-1Z"/><path class="cls-2" d="M44.75,7.58H48v.85h-2.2V9.75h2v.82h-2v1.94h-1Z"/><path class="cls-2" d="M48.59,7.58h1v4.93h-1Z"/><path class="cls-2" d="M51.39,12.29a2.05,2.05,0,0,1-.82-.88A3,3,0,0,1,50.28,10h0a3,3,0,0,1,.29-1.37,2,2,0,0,1,.82-.87,2.46,2.46,0,0,1,1.25-.31,2.3,2.3,0,0,1,1.06.24,1.87,1.87,0,0,1,.75.64,2,2,0,0,1,.34.92v0h-1V9.27a1.19,1.19,0,0,0-.21-.47,1,1,0,0,0-.39-.32,1.25,1.25,0,0,0-.53-.11,1.19,1.19,0,0,0-.69.2,1.25,1.25,0,0,0-.45.58,2.18,2.18,0,0,0-.16.89h0a2.23,2.23,0,0,0,.16.9,1.25,1.25,0,0,0,.45.58,1.22,1.22,0,0,0,.69.2,1.1,1.1,0,0,0,.52-.11,1,1,0,0,0,.39-.31,1.35,1.35,0,0,0,.23-.5v0h1v0a1.86,1.86,0,0,1-.33.93,2.15,2.15,0,0,1-.76.64,2.43,2.43,0,0,1-1.06.23A2.46,2.46,0,0,1,51.39,12.29Z"/><path class="cls-2" d="M55.43,7.58H58.7v.85H56.46V9.61h2.11v.81H56.46v1.24H58.7v.85H55.43Z"/><path class="cls-2" d="M59.48,10a.53.53,0,0,1-.16-.39.54.54,0,0,1,.16-.4A.53.53,0,0,1,59.87,9a.54.54,0,0,1,.4.16.58.58,0,0,1,.16.4.57.57,0,0,1-.16.39.54.54,0,0,1-.4.16A.53.53,0,0,1,59.48,10Zm0,2.43a.53.53,0,0,1-.16-.39.54.54,0,0,1,.16-.4.57.57,0,0,1,.39-.16.55.55,0,0,1,.56.56.57.57,0,0,1-.16.39.54.54,0,0,1-.4.16A.53.53,0,0,1,59.48,12.41Z"/><path class="cls-2" d="M15.48,16h1.85a1.84,1.84,0,0,1,.83.18,1.27,1.27,0,0,1,.54.51,1.51,1.51,0,0,1,.2.78h0a1.46,1.46,0,0,1-.27.88,1.28,1.28,0,0,1-.72.52l1.14,2.05h-.72L17.27,19H16.09v1.95h-.61Zm1.79,2.44a1.07,1.07,0,0,0,.74-.25.92.92,0,0,0,.25-.7h0a.9.9,0,0,0-.27-.69,1.08,1.08,0,0,0-.74-.24H16.09v1.89Z"/><path class="cls-2" d="M19.67,20.85a.41.41,0,0,1,0-.56.39.39,0,0,1,.28-.11A.39.39,0,0,1,20,21,.39.39,0,0,1,19.67,20.85Z"/><path class="cls-2" d="M22.27,16h1.66a2.59,2.59,0,0,1,1.25.29,2.09,2.09,0,0,1,.8.84,3,3,0,0,1,.27,1.33h0A3,3,0,0,1,26,19.77a2,2,0,0,1-.8.85,2.54,2.54,0,0,1-1.25.29H22.27Zm1.62,4.38a1.92,1.92,0,0,0,.94-.22,1.43,1.43,0,0,0,.59-.65,2.35,2.35,0,0,0,.21-1h0a2.35,2.35,0,0,0-.21-1,1.43,1.43,0,0,0-.59-.65,1.92,1.92,0,0,0-.94-.22h-1v3.83Z"/><path class="cls-2" d="M26.4,22.11h-.06v-.53h.09a.62.62,0,0,0,.41-.1.56.56,0,0,0,.12-.41V17.36h.59v3.7a1.06,1.06,0,0,1-.26.8,1.19,1.19,0,0,1-.84.25ZM27,16.65a.39.39,0,0,1-.11-.27.36.36,0,0,1,.11-.26.39.39,0,0,1,.27-.11.38.38,0,0,1,.37.37.39.39,0,0,1-.11.27.35.35,0,0,1-.26.1A.38.38,0,0,1,27,16.65Z"/><path class="cls-2" d="M28.78,20.85a1.07,1.07,0,0,1-.41-.38,1,1,0,0,1-.15-.56h0a.88.88,0,0,1,.34-.73,1.6,1.6,0,0,1,1-.3l1.32-.08v.46l-1.25.08a1,1,0,0,0-.55.17.46.46,0,0,0-.2.4h0a.47.47,0,0,0,.19.4.82.82,0,0,0,.52.15,1.18,1.18,0,0,0,.5-.11A1,1,0,0,0,30.4,20a.88.88,0,0,0,.13-.46v-1a.68.68,0,0,0-.2-.51.86.86,0,0,0-.58-.19.92.92,0,0,0-.55.15.67.67,0,0,0-.27.39v0h-.58v0a1,1,0,0,1,.2-.53,1.12,1.12,0,0,1,.47-.38,1.81,1.81,0,0,1,.72-.14,1.76,1.76,0,0,1,.73.14,1.05,1.05,0,0,1,.47.41,1,1,0,0,1,.17.61v2.46h-.59v-.58h0a1,1,0,0,1-.27.34,1.14,1.14,0,0,1-.38.23,1.44,1.44,0,0,1-.46.08A1.38,1.38,0,0,1,28.78,20.85Z"/><path class="cls-2" d="M31.91,16h.59v4.93h-.59Z"/><path class="cls-2" d="M33.31,17.36h.59v.52h0a1.05,1.05,0,0,1,.38-.43,1.08,1.08,0,0,1,.6-.16,1.23,1.23,0,0,1,.44.08,1,1,0,0,1,.34.23,1.14,1.14,0,0,1,.22.37h0a1.64,1.64,0,0,1,.26-.37,1.18,1.18,0,0,1,.39-.23,1.39,1.39,0,0,1,.46-.08,1.35,1.35,0,0,1,.62.14,1.12,1.12,0,0,1,.4.41,1.21,1.21,0,0,1,.14.62v2.45h-.59V18.59a.85.85,0,0,0-.19-.57.71.71,0,0,0-.55-.21.82.82,0,0,0-.42.11.74.74,0,0,0-.28.3.88.88,0,0,0-.1.43v2.26h-.6V18.53a.69.69,0,0,0-.19-.52.75.75,0,0,0-.54-.2.73.73,0,0,0-.41.12.78.78,0,0,0-.29.31.93.93,0,0,0-.11.44v2.23h-.59Z"/><path class="cls-2" d="M39.35,20.85a1,1,0,0,1-.56-.94h0a.9.9,0,0,1,.33-.73,1.65,1.65,0,0,1,1-.3l1.32-.08v.46l-1.25.08a1,1,0,0,0-.55.17.48.48,0,0,0-.2.4h0a.48.48,0,0,0,.2.4.81.81,0,0,0,.51.15,1.19,1.19,0,0,0,.51-.11A1,1,0,0,0,41,20a.8.8,0,0,0,.13-.46v-1a.68.68,0,0,0-.2-.51.86.86,0,0,0-.58-.19.92.92,0,0,0-.55.15.61.61,0,0,0-.26.39v0h-.57v0a1.15,1.15,0,0,1,.2-.53,1.21,1.21,0,0,1,.48-.38,1.74,1.74,0,0,1,.72-.14,1.83,1.83,0,0,1,.73.14,1.1,1.1,0,0,1,.64,1v2.46h-.6v-.58h0a1.13,1.13,0,0,1-.27.34,1.29,1.29,0,0,1-.39.23A1.33,1.33,0,0,1,40,21,1.35,1.35,0,0,1,39.35,20.85Z"/><path class="cls-2" d="M44,16h.62v4.38H47v.55H44Z"/><path class="cls-2" d="M48.06,20.75a1.5,1.5,0,0,1-.58-.64,2.12,2.12,0,0,1-.21-1h0a2.12,2.12,0,0,1,.21-1,1.5,1.5,0,0,1,.58-.64,1.6,1.6,0,0,1,.86-.22,1.62,1.62,0,0,1,.86.22,1.5,1.5,0,0,1,.58.64,2.12,2.12,0,0,1,.2,1h0a2.19,2.19,0,0,1-.2,1,1.54,1.54,0,0,1-.58.63,1.72,1.72,0,0,1-1.72,0Zm1.41-.45a1.16,1.16,0,0,0,.36-.45,1.93,1.93,0,0,0,.13-.72h0a1.84,1.84,0,0,0-.13-.71,1,1,0,0,0-.37-.45,1,1,0,0,0-.54-.16,1,1,0,0,0-.55.16,1,1,0,0,0-.36.45,1.67,1.67,0,0,0-.13.71h0a1.75,1.75,0,0,0,.13.72,1.16,1.16,0,0,0,.36.45,1.08,1.08,0,0,0,1.1,0Z"/><path class="cls-2" d="M51.16,17.36h.6V18h0a1.45,1.45,0,0,1,.28-.36,1.14,1.14,0,0,1,.38-.23,1.4,1.4,0,0,1,.47-.08,1.31,1.31,0,0,1,.79.23,1.4,1.4,0,0,1,.53.64,2.24,2.24,0,0,1,.19,1h0a2.24,2.24,0,0,1-.19,1,1.47,1.47,0,0,1-.53.64,1.35,1.35,0,0,1-.78.23,1.45,1.45,0,0,1-.47-.08,1.09,1.09,0,0,1-.39-.23,1.6,1.6,0,0,1-.28-.35h0v1.79h-.6Zm2.17,2.93a1,1,0,0,0,.35-.45,1.86,1.86,0,0,0,.12-.7h0a1.83,1.83,0,0,0-.12-.7,1,1,0,0,0-.35-.46,1,1,0,0,0-.55-.16.88.88,0,0,0-.53.17,1,1,0,0,0-.36.46,1.67,1.67,0,0,0-.14.69h0a1.67,1.67,0,0,0,.14.69,1.12,1.12,0,0,0,.36.46.9.9,0,0,0,.53.16A.94.94,0,0,0,53.33,20.29Z"/><path class="cls-2" d="M55.59,20.75a1.49,1.49,0,0,1-.56-.63,2.27,2.27,0,0,1-.2-1h0a2.3,2.3,0,0,1,.2-1,1.61,1.61,0,0,1,.56-.65,1.55,1.55,0,0,1,.84-.23,1.42,1.42,0,0,1,1.38.85,2.28,2.28,0,0,1,.19.94v.21H55.13v-.46H57.7l-.3.43V19a1.69,1.69,0,0,0-.12-.68.87.87,0,0,0-.35-.4.92.92,0,0,0-.5-.14.94.94,0,0,0-.87.55,1.67,1.67,0,0,0-.13.67v.23a1.52,1.52,0,0,0,.13.64.93.93,0,0,0,.37.41,1,1,0,0,0,.55.14,1.07,1.07,0,0,0,.41-.07.71.71,0,0,0,.29-.18.75.75,0,0,0,.18-.28v0H58v0a1.12,1.12,0,0,1-.17.41,1.25,1.25,0,0,1-.32.33,1.23,1.23,0,0,1-.44.23,1.91,1.91,0,0,1-.54.08A1.67,1.67,0,0,1,55.59,20.75Z"/><path class="cls-2" d="M59.13,20.85a1.21,1.21,0,0,1-.48-.38,1.15,1.15,0,0,1-.21-.55v0H59v0a.61.61,0,0,0,.25.41,1,1,0,0,0,.57.15,1.22,1.22,0,0,0,.41-.06.55.55,0,0,0,.26-.18.4.4,0,0,0,.1-.28h0a.41.41,0,0,0-.12-.31.91.91,0,0,0-.42-.19l-.56-.14a1.55,1.55,0,0,1-.75-.36.81.81,0,0,1-.25-.62h0a.94.94,0,0,1,.17-.54,1.07,1.07,0,0,1,.46-.37,1.62,1.62,0,0,1,.68-.13,1.41,1.41,0,0,1,.67.14,1.07,1.07,0,0,1,.46.37,1.13,1.13,0,0,1,.19.54v0h-.57v0a.61.61,0,0,0-.23-.42.83.83,0,0,0-.52-.16,1.07,1.07,0,0,0-.38.07.55.55,0,0,0-.24.18.51.51,0,0,0-.08.28h0a.42.42,0,0,0,.13.31,1,1,0,0,0,.42.2l.57.13a1.63,1.63,0,0,1,.76.36.86.86,0,0,1,.22.61h0a1,1,0,0,1-.18.55,1.19,1.19,0,0,1-.5.37,2,2,0,0,1-1.43,0Z"/><path class="cls-2" d="M63.38,16H64l3.23,4.64-.78-.75h.28V16h.61v4.93h-.6l-3.24-4.64.78.75H64v3.89h-.61Z"/><path class="cls-2" d="M68.77,20.75a1.45,1.45,0,0,1-.57-.63,2.27,2.27,0,0,1-.19-1h0a2.3,2.3,0,0,1,.19-1,1.69,1.69,0,0,1,.56-.65,1.56,1.56,0,0,1,.85-.23,1.49,1.49,0,0,1,.83.22,1.52,1.52,0,0,1,.54.63,2.28,2.28,0,0,1,.19.94v.21H68.3v-.46h2.57l-.3.43V19a1.69,1.69,0,0,0-.12-.68.87.87,0,0,0-.35-.4.92.92,0,0,0-.5-.14,1,1,0,0,0-.51.14.89.89,0,0,0-.35.41,1.51,1.51,0,0,0-.13.67v.23a1.38,1.38,0,0,0,.13.64.85.85,0,0,0,.36.41,1.19,1.19,0,0,0,1,.07.75.75,0,0,0,.3-.18.73.73,0,0,0,.17-.28v0h.58v0a1.32,1.32,0,0,1-.17.41,1.43,1.43,0,0,1-.32.33,1.37,1.37,0,0,1-.45.23,1.8,1.8,0,0,1-.54.08A1.61,1.61,0,0,1,68.77,20.75Z"/><path class="cls-2" d="M71.32,17.36H72l1,2.92h0l1-2.92h.61l-1.3,3.55h-.61Z"/><path class="cls-2" d="M75.46,20.75a1.51,1.51,0,0,1-.57-.63,2.27,2.27,0,0,1-.19-1h0a2.16,2.16,0,0,1,.2-1,1.59,1.59,0,0,1,.55-.65,1.56,1.56,0,0,1,.85-.23,1.49,1.49,0,0,1,.83.22,1.39,1.39,0,0,1,.54.63,2.13,2.13,0,0,1,.19.94v.21H75v-.46h2.57l-.31.43V19a1.69,1.69,0,0,0-.12-.68.85.85,0,0,0-.34-.4,1,1,0,0,0-1,0,.91.91,0,0,0-.36.41,1.51,1.51,0,0,0-.13.67v.23a1.38,1.38,0,0,0,.13.64.85.85,0,0,0,.36.41,1.19,1.19,0,0,0,1,.07.75.75,0,0,0,.3-.18.62.62,0,0,0,.17-.28v0h.59v0a1.32,1.32,0,0,1-.17.41,1.25,1.25,0,0,1-.32.33,1.42,1.42,0,0,1-.44.23,1.92,1.92,0,0,1-.55.08A1.64,1.64,0,0,1,75.46,20.75Z"/><path class="cls-2" d="M79,20.85a1.21,1.21,0,0,1-.48-.38,1.16,1.16,0,0,1-.22-.55v0h.6v0a.62.62,0,0,0,.26.41.91.91,0,0,0,.56.15,1.33,1.33,0,0,0,.42-.06.55.55,0,0,0,.26-.18.45.45,0,0,0,.09-.28h0a.45.45,0,0,0-.11-.31.91.91,0,0,0-.43-.19l-.56-.14a1.64,1.64,0,0,1-.75-.36.84.84,0,0,1-.24-.62h0a.93.93,0,0,1,.16-.54,1.13,1.13,0,0,1,.46-.37,1.65,1.65,0,0,1,.68-.13,1.45,1.45,0,0,1,.68.14,1.1,1.1,0,0,1,.45.37,1,1,0,0,1,.19.54v0h-.56v0a.6.6,0,0,0-.22-.42.86.86,0,0,0-.53-.16,1,1,0,0,0-.37.07.45.45,0,0,0-.24.18.45.45,0,0,0-.09.28h0a.46.46,0,0,0,.13.31,1,1,0,0,0,.43.2l.56.13a1.58,1.58,0,0,1,.76.36.82.82,0,0,1,.22.61h0a.89.89,0,0,1-.18.55,1.16,1.16,0,0,1-.49.37,1.8,1.8,0,0,1-.71.14A1.75,1.75,0,0,1,79,20.85Z"/><path class="cls-2" d="M81.78,20.21h.62l-.5,1.67h-.42Z"/><path class="cls-2" d="M84.85,20.85a1.21,1.21,0,0,1-.48-.38,1.06,1.06,0,0,1-.21-.55v0h.59v0a.61.61,0,0,0,.25.41,1,1,0,0,0,.57.15,1.22,1.22,0,0,0,.41-.06.55.55,0,0,0,.26-.18.4.4,0,0,0,.1-.28h0a.41.41,0,0,0-.12-.31.91.91,0,0,0-.42-.19l-.56-.14A1.55,1.55,0,0,1,84.5,19a.81.81,0,0,1-.25-.62h0a.94.94,0,0,1,.17-.54,1.07,1.07,0,0,1,.46-.37,1.62,1.62,0,0,1,.68-.13,1.48,1.48,0,0,1,.68.14,1.1,1.1,0,0,1,.45.37,1.13,1.13,0,0,1,.19.54v0h-.57v0a.61.61,0,0,0-.23-.42.83.83,0,0,0-.52-.16,1.07,1.07,0,0,0-.38.07.55.55,0,0,0-.24.18.51.51,0,0,0-.08.28h0a.42.42,0,0,0,.13.31,1,1,0,0,0,.42.2L86,19a1.63,1.63,0,0,1,.76.36.85.85,0,0,1,.21.61h0a.88.88,0,0,1-.17.55,1.19,1.19,0,0,1-.5.37,1.73,1.73,0,0,1-.71.14A1.81,1.81,0,0,1,84.85,20.85Z"/><path class="cls-2" d="M87.75,22.11h-.57L88.58,16h.56Z"/><path class="cls-2" d="M89.53,17.36h.59v.5h0a1.27,1.27,0,0,1,.42-.41,1.29,1.29,0,0,1,.68-.16,1.2,1.2,0,0,1,.91.35,1.41,1.41,0,0,1,.32,1v2.31h-.6v-2.2a1,1,0,0,0-.2-.67.79.79,0,0,0-.61-.23,1,1,0,0,0-.49.13.78.78,0,0,0-.32.35,1.12,1.12,0,0,0-.12.53v2.09h-.59Z"/><path class="cls-2" d="M93.31,17.82A1.08,1.08,0,0,1,93,17h0a1.06,1.06,0,0,1,.28-.79,1.11,1.11,0,0,1,1.51,0,1.11,1.11,0,0,1,.29.8h0a1.08,1.08,0,0,1-.29.79,1.13,1.13,0,0,1-1.51,0Zm1.17-.29a.76.76,0,0,0,.15-.5h0a.78.78,0,0,0-.15-.51.52.52,0,0,0-.41-.18.52.52,0,0,0-.41.19.72.72,0,0,0-.16.5h0a.76.76,0,0,0,.15.5.53.53,0,0,0,.42.18A.52.52,0,0,0,94.48,17.53Z"/><path class="cls-2" d="M96.93,18.63h5.43v.56H96.93Z"/><path class="cls-2" d="M104.47,16h.61v4.93h-.61Zm.31,4.39h1.46a1.4,1.4,0,0,0,.84-.22.77.77,0,0,0,.29-.65h0a.8.8,0,0,0-.13-.48.76.76,0,0,0-.4-.29,2.08,2.08,0,0,0-.66-.1h-1.4v-.52H106a1.39,1.39,0,0,0,.83-.22.69.69,0,0,0,.29-.61h0a.65.65,0,0,0-.24-.55,1.07,1.07,0,0,0-.69-.2h-1.42V16h1.56a1.72,1.72,0,0,1,.74.15,1.32,1.32,0,0,1,.5.43,1.26,1.26,0,0,1,.17.65h0a1.13,1.13,0,0,1-.11.48,1.26,1.26,0,0,1-.32.4,1,1,0,0,1-.46.19v0a1.3,1.3,0,0,1,.61.2,1.24,1.24,0,0,1,.4.42,1.28,1.28,0,0,1,.13.59h0a1.28,1.28,0,0,1-.2.74,1.21,1.21,0,0,1-.57.47,2.07,2.07,0,0,1-.9.17h-1.55Z"/><path class="cls-2" d="M108.7,16h1.85a1.81,1.81,0,0,1,.83.18,1.35,1.35,0,0,1,.55.51,1.5,1.5,0,0,1,.19.78h0a1.52,1.52,0,0,1-.26.88,1.34,1.34,0,0,1-.73.52l1.14,2.05h-.72l-1-1.95h-1.18v1.95h-.62Zm1.8,2.44a1,1,0,0,0,.73-.25.93.93,0,0,0,.26-.7h0a.88.88,0,0,0-.28-.69,1.08,1.08,0,0,0-.74-.24h-1.15v1.89Z"/><path class="cls-2" d="M112.82,18.63H115v.56h-2.19Z"/><path class="cls-2" d="M116.56,20.68a2,2,0,0,1-.62-.88,3.91,3.91,0,0,1-.21-1.35h0a3.91,3.91,0,0,1,.21-1.35,2,2,0,0,1,.62-.88,1.69,1.69,0,0,1,2,0,1.87,1.87,0,0,1,.62.88,3.67,3.67,0,0,1,.22,1.35h0a3.67,3.67,0,0,1-.22,1.35,1.93,1.93,0,0,1-.62.88,1.69,1.69,0,0,1-2,0Zm1.62-.47a1.46,1.46,0,0,0,.41-.69,3.75,3.75,0,0,0,.14-1.07h0a3.75,3.75,0,0,0-.14-1.07,1.46,1.46,0,0,0-.41-.69.93.93,0,0,0-.64-.24,1,1,0,0,0-.65.24,1.54,1.54,0,0,0-.4.69,3.43,3.43,0,0,0-.14,1.07h0a3.43,3.43,0,0,0,.14,1.07,1.54,1.54,0,0,0,.4.69,1,1,0,0,0,.65.25A.93.93,0,0,0,118.18,20.21Z"/><path class="cls-2" d="M122.41,19.89h-2.48v-.56l.43-.67.43-.67.44-.67c.14-.22.28-.45.43-.67l.43-.67H123v3.37h.7v.54H123v1h-.59Zm0-.54V16.51h0l-.37.56-.37.56c-.13.19-.25.38-.37.57s-.25.38-.37.57-.25.37-.37.56v0Z"/><path class="cls-2" d="M125,20.68a1.93,1.93,0,0,1-.62-.88,3.9,3.9,0,0,1-.22-1.35h0a3.9,3.9,0,0,1,.22-1.35,1.87,1.87,0,0,1,.62-.88,1.52,1.52,0,0,1,1-.31,1.55,1.55,0,0,1,1,.31,1.87,1.87,0,0,1,.62.88,3.9,3.9,0,0,1,.22,1.35h0a3.9,3.9,0,0,1-.22,1.35,1.93,1.93,0,0,1-.62.88,1.55,1.55,0,0,1-1,.31A1.52,1.52,0,0,1,125,20.68Zm1.62-.47a1.65,1.65,0,0,0,.41-.69,3.75,3.75,0,0,0,.14-1.07h0a3.75,3.75,0,0,0-.14-1.07,1.65,1.65,0,0,0-.41-.69,1,1,0,0,0-.65-.24.93.93,0,0,0-.64.24,1.55,1.55,0,0,0-.41.69,3.75,3.75,0,0,0-.14,1.07h0a3.75,3.75,0,0,0,.14,1.07,1.55,1.55,0,0,0,.41.69.93.93,0,0,0,.64.25A1,1,0,0,0,126.66,20.21Z"/><path class="cls-2" d="M128.45,20.21h.62l-.5,1.67h-.42Z"/><path class="cls-2" d="M131.08,16h.61v4.93h-.61Zm.56,2.42h.07L133.9,16h.78l-2.06,2.22h0l-.94,1Zm.55.16.43-.44,2.24,2.79h-.78Z"/><path class="cls-2" d="M135.38,16h.71l1.71,4.16h0l1.7-4.16h.72v4.93h-.58V17.1h-.28l.67-1-2,4.79h-.52l-2-4.79.67,1H136v3.81h-.58Z"/><path class="cls-2" d="M144.9,19.89h-2.48v-.56l.44-.67.43-.67c.15-.22.29-.45.43-.67l.44-.67.43-.67h.91v3.37h.7v.54h-.7v1h-.6Zm0-.54V16.51h0l-.37.56c-.12.19-.24.38-.37.56s-.24.38-.37.57-.24.38-.37.57l-.37.56v0Z"/><path class="cls-2" d="M148.05,16.63h0l-1.3.91v-.62L148,16h.6v4.93h-.59Z"/><path class="cls-2" d="M149.77,20.21h.62l-.5,1.67h-.42Z"/><path class="cls-2" d="M152.15,20.81a1.57,1.57,0,0,1-.59-.49,1.49,1.49,0,0,1-.26-.72v0h.6v0a.92.92,0,0,0,.56.75,1.12,1.12,0,0,0,.53.11,1.15,1.15,0,0,0,.59-.14,1.1,1.1,0,0,0,.4-.4,1.22,1.22,0,0,0,.14-.59h0a1.21,1.21,0,0,0-.14-.58,1,1,0,0,0-.4-.39,1.11,1.11,0,0,0-.58-.15,1.45,1.45,0,0,0-.47.08,1.07,1.07,0,0,0-.37.22l-.13.13-.11.16h-.54l.25-2.81h2.83v.55h-2.32L152,18.18h0a1.15,1.15,0,0,1,.46-.38,1.76,1.76,0,0,1,.66-.13,1.6,1.6,0,0,1,.84.22,1.54,1.54,0,0,1,.58.58,1.64,1.64,0,0,1,.21.84h0a1.71,1.71,0,0,1-.23.87,1.6,1.6,0,0,1-.62.59,2.06,2.06,0,0,1-1.75,0Z"/><path class="cls-2" d="M156.62,18.63h5.43v.56h-5.43Z"/><path class="cls-2" d="M165,20.68a2.14,2.14,0,0,1-.79-.89,3.13,3.13,0,0,1-.27-1.35h0a3.13,3.13,0,0,1,.27-1.35,2.16,2.16,0,0,1,.78-.88,2.23,2.23,0,0,1,1.2-.31,2.18,2.18,0,0,1,.93.19,1.89,1.89,0,0,1,.7.55,1.79,1.79,0,0,1,.38.81v0h-.62l0-.08a1.42,1.42,0,0,0-.29-.51,1.16,1.16,0,0,0-.46-.32,1.63,1.63,0,0,0-1.48.13,1.55,1.55,0,0,0-.56.69,2.38,2.38,0,0,0-.2,1h0a2.46,2.46,0,0,0,.2,1,1.6,1.6,0,0,0,.56.69,1.55,1.55,0,0,0,.86.25,1.48,1.48,0,0,0,.61-.12,1.12,1.12,0,0,0,.47-.33,1.53,1.53,0,0,0,.3-.55v0h.62v0a1.82,1.82,0,0,1-.38.82,1.88,1.88,0,0,1-.7.54,2.41,2.41,0,0,1-2.12-.12Z"/><path class="cls-2" d="M169.45,20.75a1.49,1.49,0,0,1-.56-.63,2.27,2.27,0,0,1-.2-1h0a2.3,2.3,0,0,1,.2-1,1.61,1.61,0,0,1,.56-.65,1.55,1.55,0,0,1,.84-.23,1.42,1.42,0,0,1,1.38.85,2.28,2.28,0,0,1,.18.94v.21H169v-.46h2.57l-.3.43V19a1.53,1.53,0,0,0-.13-.68.8.8,0,0,0-.34-.4.92.92,0,0,0-.5-.14.94.94,0,0,0-.87.55,1.67,1.67,0,0,0-.13.67v.23a1.52,1.52,0,0,0,.13.64.93.93,0,0,0,.37.41,1,1,0,0,0,.55.14,1.07,1.07,0,0,0,.41-.07.71.71,0,0,0,.29-.18.62.62,0,0,0,.17-.28l0,0h.58v0a1.12,1.12,0,0,1-.17.41,1.25,1.25,0,0,1-.32.33,1.32,1.32,0,0,1-.44.23,1.91,1.91,0,0,1-.54.08A1.67,1.67,0,0,1,169.45,20.75Z"/><path class="cls-2" d="M173,20.75a1.45,1.45,0,0,1-.52-.64,2.29,2.29,0,0,1-.19-1h0a2.24,2.24,0,0,1,.19-1,1.4,1.4,0,0,1,.53-.64,1.28,1.28,0,0,1,.78-.23,1.3,1.3,0,0,1,1.14.66h0V16h.59v4.93h-.59v-.6h0a1.36,1.36,0,0,1-.46.49,1.24,1.24,0,0,1-.67.18A1.44,1.44,0,0,1,173,20.75Zm1.45-.46a1.12,1.12,0,0,0,.36-.46,1.68,1.68,0,0,0,.13-.7h0a1.67,1.67,0,0,0-.13-.69,1.12,1.12,0,0,0-.36-.46.9.9,0,0,0-.53-.17.92.92,0,0,0-.55.17,1,1,0,0,0-.35.45,1.86,1.86,0,0,0-.12.7h0a1.88,1.88,0,0,0,.12.71,1,1,0,0,0,.35.45.92.92,0,0,0,.55.16A.9.9,0,0,0,174.44,20.29Z"/><path class="cls-2" d="M176.33,17.36h.56v.57h0a1,1,0,0,1,.32-.47.94.94,0,0,1,.54-.17H178v.58a.29.29,0,0,0-.12,0h-.2a.77.77,0,0,0-.4.1.73.73,0,0,0-.26.29.87.87,0,0,0-.1.44v2.22h-.59Z"/><path class="cls-2" d="M178.92,20.75a1.48,1.48,0,0,1-.57-.64,2.12,2.12,0,0,1-.21-1h0a2.12,2.12,0,0,1,.21-1,1.48,1.48,0,0,1,.57-.64,1.81,1.81,0,0,1,1.73,0,1.48,1.48,0,0,1,.57.64,2.12,2.12,0,0,1,.21,1h0a2.19,2.19,0,0,1-.21,1,1.51,1.51,0,0,1-.57.63,1.62,1.62,0,0,1-.86.23A1.66,1.66,0,0,1,178.92,20.75Zm1.42-.45a1.06,1.06,0,0,0,.35-.45,1.75,1.75,0,0,0,.13-.72h0a1.67,1.67,0,0,0-.13-.71.91.91,0,0,0-.36-.45,1,1,0,0,0-.55-.16,1,1,0,0,0-.54.16,1,1,0,0,0-.36.45,1.67,1.67,0,0,0-.13.71h0a1.75,1.75,0,0,0,.13.72,1.08,1.08,0,0,0,.36.45,1.08,1.08,0,0,0,1.1,0Z"/><path class="cls-2" d="M16.9,24.38h.61l1.82,4.93h-.65l-1.47-4.19h0l-1.47,4.19h-.65Zm-.9,3h2.41v.52H16Z"/><path class="cls-2" d="M19.8,25.76h.56v.57h0a.87.87,0,0,1,.32-.47.89.89,0,0,1,.54-.17h.24v.58l-.12,0h-.2a.74.74,0,0,0-.4.1.69.69,0,0,0-.27.29,1,1,0,0,0-.09.44v2.22h-.6Z"/><path class="cls-2" d="M22.37,29.15a1.49,1.49,0,0,1-.56-.63,2.27,2.27,0,0,1-.2-1h0a2.3,2.3,0,0,1,.2-1,1.61,1.61,0,0,1,.56-.65,1.55,1.55,0,0,1,.84-.23,1.5,1.5,0,0,1,.84.22,1.52,1.52,0,0,1,.54.63,2.28,2.28,0,0,1,.19.94v.21H21.91v-.46h2.57l-.3.43v-.23a1.69,1.69,0,0,0-.12-.68.87.87,0,0,0-.35-.4.92.92,0,0,0-.5-.14,1,1,0,0,0-.51.14,1,1,0,0,0-.36.41,1.67,1.67,0,0,0-.12.67v.23a1.56,1.56,0,0,0,.12.64.93.93,0,0,0,.37.41,1,1,0,0,0,.55.14,1.07,1.07,0,0,0,.41-.07.75.75,0,0,0,.3-.18.88.88,0,0,0,.17-.28v0h.58v0a1.29,1.29,0,0,1-.16.41,1.43,1.43,0,0,1-.32.33,1.37,1.37,0,0,1-.45.23,1.91,1.91,0,0,1-.54.08A1.67,1.67,0,0,1,22.37,29.15Z"/><path class="cls-2" d="M25.79,29.25a1.07,1.07,0,0,1-.41-.38,1,1,0,0,1-.15-.56h0a.88.88,0,0,1,.34-.73,1.6,1.6,0,0,1,.95-.3l1.31-.08v.46l-1.24.08a1,1,0,0,0-.55.17.46.46,0,0,0-.2.4h0a.47.47,0,0,0,.19.4.82.82,0,0,0,.52.15,1.18,1.18,0,0,0,.5-.11,1,1,0,0,0,.36-.33.88.88,0,0,0,.13-.46V26.91a.66.66,0,0,0-.21-.51.81.81,0,0,0-.57-.19.92.92,0,0,0-.55.15.67.67,0,0,0-.27.39v0h-.58v0a1,1,0,0,1,.2-.53,1.12,1.12,0,0,1,.47-.38,1.81,1.81,0,0,1,.72-.14,1.79,1.79,0,0,1,.73.14,1.11,1.11,0,0,1,.47.41,1,1,0,0,1,.17.61v2.46h-.59v-.58h0a1.24,1.24,0,0,1-.65.57,1.44,1.44,0,0,1-.46.08A1.52,1.52,0,0,1,25.79,29.25Z"/><path class="cls-2" d="M28.92,24.38h.59v4.93h-.59Z"/><path class="cls-2" d="M30.38,28.61H31l-.5,1.67h-.42Z"/><path class="cls-2" d="M33,24.38h1.84a1.78,1.78,0,0,1,.83.18,1.29,1.29,0,0,1,.55.51,1.51,1.51,0,0,1,.2.78h0a1.46,1.46,0,0,1-.27.88,1.32,1.32,0,0,1-.72.52l1.14,2h-.72L34.8,27.36H33.62v1.95H33Zm1.79,2.44a1,1,0,0,0,.73-.25.89.89,0,0,0,.26-.7h0a.9.9,0,0,0-.27-.69,1.09,1.09,0,0,0-.75-.24H33.62v1.89Z"/><path class="cls-2" d="M37.53,29.23a1.17,1.17,0,0,1-.47-.44,1.5,1.5,0,0,1-.19-.63v-.05h.62v0a.91.91,0,0,0,.11.34.63.63,0,0,0,.26.25.79.79,0,0,0,.4.1.81.81,0,0,0,.63-.24,1,1,0,0,0,.21-.69V24.38h.62v3.53A1.48,1.48,0,0,1,39.32,29a1.41,1.41,0,0,1-1.06.39A1.49,1.49,0,0,1,37.53,29.23Z"/><path class="cls-2" d="M41.82,27h5.43v.56H41.82Z"/><path class="cls-2" d="M49.21,28.87,52,25v0H49.31v-.55H52.8v.44L50,28.74v0h2.87v.55H49.21Z"/><path class="cls-2" d="M53.67,24.38h.62v4.93h-.62Z"/><path class="cls-2" d="M55.24,24.38h.62v4.93h-.62ZM55.55,27h1.29a1.14,1.14,0,0,0,.82-.27A1,1,0,0,0,58,26h0a1,1,0,0,0-.29-.76,1.14,1.14,0,0,0-.82-.27H55.55v-.55H57a1.69,1.69,0,0,1,.82.2,1.41,1.41,0,0,1,.56.55,1.69,1.69,0,0,1,.2.82h0a1.73,1.73,0,0,1-.2.83,1.5,1.5,0,0,1-.56.56,1.69,1.69,0,0,1-.82.2H55.55Z"/><path class="cls-2" d="M59.28,26.6a.39.39,0,0,1-.11-.28.37.37,0,0,1,.11-.27.39.39,0,0,1,.56,0,.37.37,0,0,1,.11.27.39.39,0,0,1-.11.28.41.41,0,0,1-.56,0Zm0,2.65a.41.41,0,1,1,.28.11A.41.41,0,0,1,59.28,29.25Z"/><path class="cls-2" d="M62.15,28.89l1.73-1.81c.23-.24.4-.43.52-.58a2,2,0,0,0,.24-.41,1.23,1.23,0,0,0,.06-.39h0a.94.94,0,0,0-.11-.45.8.8,0,0,0-.33-.3,1,1,0,0,0-.48-.12,1.27,1.27,0,0,0-.55.13,1,1,0,0,0-.38.35.87.87,0,0,0-.14.48h-.59v0a1.33,1.33,0,0,1,.22-.76,1.62,1.62,0,0,1,.6-.53,1.78,1.78,0,0,1,.83-.19,1.71,1.71,0,0,1,.8.18,1.38,1.38,0,0,1,.55.49,1.3,1.3,0,0,1,.2.7h0a1.39,1.39,0,0,1-.1.53,2.66,2.66,0,0,1-.35.57,10.1,10.1,0,0,1-.71.78l-1.35,1.39.18-.38v.38l-.18-.18h2.6v.55H62.15Z"/><path class="cls-2" d="M67,29.21a1.5,1.5,0,0,1-.59-.49,1.4,1.4,0,0,1-.26-.72v0h.6v0a1,1,0,0,0,.18.44,1.15,1.15,0,0,0,.38.31,1.17,1.17,0,0,0,.53.11,1.16,1.16,0,0,0,.6-.14,1.1,1.1,0,0,0,.4-.4,1.21,1.21,0,0,0,.14-.58h0a1.11,1.11,0,0,0-.15-.58,1,1,0,0,0-.39-.39,1.14,1.14,0,0,0-.58-.15,1.4,1.4,0,0,0-.47.08,1.11,1.11,0,0,0-.38.22l-.12.13a.91.91,0,0,0-.11.16h-.54l.25-2.81h2.82v.55H67l-.17,1.65h0a1.18,1.18,0,0,1,.47-.38,1.73,1.73,0,0,1,1.5.09,1.51,1.51,0,0,1,.57.58,1.54,1.54,0,0,1,.21.84h0a1.72,1.72,0,0,1-.22.88,1.6,1.6,0,0,1-.62.59,1.94,1.94,0,0,1-.91.21A1.86,1.86,0,0,1,67,29.21Z"/><path class="cls-2" d="M71,29.21a1.61,1.61,0,0,1-.64-.5,1.24,1.24,0,0,1-.23-.73h0a1.19,1.19,0,0,1,.14-.56,1.33,1.33,0,0,1,.37-.45,1.46,1.46,0,0,1,.55-.25h0a1.44,1.44,0,0,1-.64-.42,1,1,0,0,1-.24-.68h0a1.08,1.08,0,0,1,.21-.66,1.34,1.34,0,0,1,.58-.46,2.11,2.11,0,0,1,1.66,0,1.37,1.37,0,0,1,.57.46,1.08,1.08,0,0,1,.21.66h0a1,1,0,0,1-.24.68,1.38,1.38,0,0,1-.64.42h0a1.46,1.46,0,0,1,.55.25,1.33,1.33,0,0,1,.37.45,1.19,1.19,0,0,1,.14.56h0a1.24,1.24,0,0,1-.23.73,1.54,1.54,0,0,1-.64.5,2.47,2.47,0,0,1-1.85,0Zm1.53-.47a1,1,0,0,0,.41-.33.75.75,0,0,0,.15-.47h0a.81.81,0,0,0-.15-.48,1,1,0,0,0-.41-.32,1.59,1.59,0,0,0-1.21,0,1.11,1.11,0,0,0-.41.32.81.81,0,0,0-.15.48h0a.75.75,0,0,0,.15.47,1,1,0,0,0,.41.33,1.59,1.59,0,0,0,1.21,0Zm-.08-2.38a.77.77,0,0,0,.35-.29.68.68,0,0,0,.13-.42h0a.68.68,0,0,0-.13-.42.84.84,0,0,0-.35-.29,1.24,1.24,0,0,0-.52-.1,1.25,1.25,0,0,0-.53.1.91.91,0,0,0-.35.29.75.75,0,0,0-.13.42h0a.75.75,0,0,0,.13.42.83.83,0,0,0,.35.29,1.25,1.25,0,0,0,.53.11A1.24,1.24,0,0,0,72.43,26.36Z"/><path class="cls-2" d="M76.75,28.29H74.27v-.56l.43-.67.44-.67.43-.67.43-.67c.15-.22.29-.45.43-.67h.91v3.37H78v.54h-.7v1h-.59Zm0-.54V24.91h0l-.37.56L76,26l-.37.57-.37.57-.37.56v0Z"/><path class="cls-2" d="M79.49,29.21a1.57,1.57,0,0,1-.59-.49,1.49,1.49,0,0,1-.26-.72v0h.6v0a1,1,0,0,0,.17.44,1.1,1.1,0,0,0,.39.31,1.32,1.32,0,0,0,1.12,0,1.1,1.1,0,0,0,.4-.4,1.21,1.21,0,0,0,.14-.58h0a1.21,1.21,0,0,0-.14-.58,1.07,1.07,0,0,0-.4-.39,1.11,1.11,0,0,0-.58-.15,1.34,1.34,0,0,0-.46.08,1,1,0,0,0-.38.22,1.59,1.59,0,0,0-.13.13l-.11.16h-.54L79,24.38h2.83v.55H79.49l-.17,1.65h0a1.15,1.15,0,0,1,.46-.38,1.76,1.76,0,0,1,.66-.13,1.67,1.67,0,0,1,.84.22,1.54,1.54,0,0,1,.58.58,1.64,1.64,0,0,1,.21.84h0a1.72,1.72,0,0,1-.23.88,1.6,1.6,0,0,1-.62.59,2.06,2.06,0,0,1-1.75,0Z"/><path class="cls-2" d="M82.74,27h2.18v.56H82.74Z"/><path class="cls-2" d="M86.48,29.08a1.93,1.93,0,0,1-.62-.88,3.67,3.67,0,0,1-.22-1.35h0a3.67,3.67,0,0,1,.22-1.35,1.87,1.87,0,0,1,.62-.88,1.67,1.67,0,0,1,1.94,0,1.89,1.89,0,0,1,.63.88,3.9,3.9,0,0,1,.22,1.35h0a3.9,3.9,0,0,1-.22,1.35,1.94,1.94,0,0,1-.63.88,1.67,1.67,0,0,1-1.94,0Zm1.61-.47a1.46,1.46,0,0,0,.41-.69,3.41,3.41,0,0,0,.15-1.07h0a3.41,3.41,0,0,0-.15-1.07,1.46,1.46,0,0,0-.41-.69.91.91,0,0,0-.64-.24.93.93,0,0,0-.64.24,1.55,1.55,0,0,0-.41.69,3.75,3.75,0,0,0-.14,1.07h0a3.75,3.75,0,0,0,.14,1.07,1.55,1.55,0,0,0,.41.69.89.89,0,0,0,.64.25A.87.87,0,0,0,88.09,28.61Z"/><path class="cls-2" d="M90.72,29.08a2,2,0,0,1-.62-.88,3.91,3.91,0,0,1-.21-1.35h0a3.91,3.91,0,0,1,.21-1.35,2,2,0,0,1,.62-.88,1.69,1.69,0,0,1,2,0,1.87,1.87,0,0,1,.62.88,3.67,3.67,0,0,1,.22,1.35h0a3.67,3.67,0,0,1-.22,1.35,1.93,1.93,0,0,1-.62.88,1.69,1.69,0,0,1-2,0Zm1.62-.47a1.46,1.46,0,0,0,.41-.69,3.75,3.75,0,0,0,.14-1.07h0a3.75,3.75,0,0,0-.14-1.07,1.46,1.46,0,0,0-.41-.69.93.93,0,0,0-.64-.24,1,1,0,0,0-.65.24,1.54,1.54,0,0,0-.4.69,3.43,3.43,0,0,0-.14,1.07h0a3.43,3.43,0,0,0,.14,1.07,1.54,1.54,0,0,0,.4.69.91.91,0,0,0,.65.25A.89.89,0,0,0,92.34,28.61Z"/><path class="cls-2" d="M95,29.08a1.93,1.93,0,0,1-.62-.88,3.67,3.67,0,0,1-.22-1.35h0a3.67,3.67,0,0,1,.22-1.35,1.87,1.87,0,0,1,.62-.88,1.67,1.67,0,0,1,1.94,0,1.89,1.89,0,0,1,.63.88,3.9,3.9,0,0,1,.22,1.35h0a3.9,3.9,0,0,1-.22,1.35,1.94,1.94,0,0,1-.63.88,1.67,1.67,0,0,1-1.94,0Zm1.61-.47a1.56,1.56,0,0,0,.42-.69,3.75,3.75,0,0,0,.14-1.07h0A3.75,3.75,0,0,0,97,25.77a1.56,1.56,0,0,0-.42-.69.91.91,0,0,0-.64-.24.93.93,0,0,0-.64.24,1.55,1.55,0,0,0-.41.69,3.75,3.75,0,0,0-.14,1.07h0a3.75,3.75,0,0,0,.14,1.07,1.55,1.55,0,0,0,.41.69.89.89,0,0,0,.64.25A.87.87,0,0,0,96.58,28.61Z"/><path class="cls-2" d="M99.7,27h5.43v.56H99.7Z"/><path class="cls-2" d="M107.23,24.38h.62v4.93h-.62Zm.31,4.39H109a1.46,1.46,0,0,0,.85-.22.77.77,0,0,0,.29-.65h0a.78.78,0,0,0-.14-.48.76.76,0,0,0-.4-.29A2,2,0,0,0,109,27h-1.41V26.5h1.23a1.43,1.43,0,0,0,.84-.21.71.71,0,0,0,.29-.61h0a.63.63,0,0,0-.25-.55,1.07,1.07,0,0,0-.69-.2h-1.42v-.54h1.56a1.68,1.68,0,0,1,.74.15,1.25,1.25,0,0,1,.5.43,1.18,1.18,0,0,1,.18.65h0a1.14,1.14,0,0,1-.44.88.91.91,0,0,1-.45.19v0a1.34,1.34,0,0,1,.61.2,1.12,1.12,0,0,1,.39.42,1.28,1.28,0,0,1,.14.59h0a1.36,1.36,0,0,1-.2.74,1.41,1.41,0,0,1-.57.48,2.23,2.23,0,0,1-.9.16h-1.56Z"/><path class="cls-2" d="M111.37,25.76h.56v.57h0a.87.87,0,0,1,.32-.47.89.89,0,0,1,.54-.17h.24v.58l-.12,0h-.2a.74.74,0,0,0-.4.1.69.69,0,0,0-.27.29,1,1,0,0,0-.09.44v2.22h-.6Z"/><path class="cls-2" d="M113.88,29.25a1,1,0,0,1-.41-.38,1,1,0,0,1-.15-.56h0a.88.88,0,0,1,.34-.73,1.6,1.6,0,0,1,1-.3l1.31-.08v.46l-1.25.08a1,1,0,0,0-.55.17.47.47,0,0,0-.19.4h0a.47.47,0,0,0,.19.4.81.81,0,0,0,.51.15,1.19,1.19,0,0,0,.51-.11.86.86,0,0,0,.35-.33.8.8,0,0,0,.13-.46V26.91a.66.66,0,0,0-.2-.51.83.83,0,0,0-.57-.19,1,1,0,0,0-.56.15.65.65,0,0,0-.26.39v0h-.58v0a1.15,1.15,0,0,1,.2-.53,1.21,1.21,0,0,1,.48-.38,1.78,1.78,0,0,1,.72-.14,1.83,1.83,0,0,1,.73.14,1.1,1.1,0,0,1,.64,1v2.46h-.6v-.58h0a1.13,1.13,0,0,1-.27.34,1.18,1.18,0,0,1-.39.23,1.33,1.33,0,0,1-.45.08A1.52,1.52,0,0,1,113.88,29.25Z"/><path class="cls-2" d="M116.87,28.89l2-2.63h-2v-.49h2.64v.43l-2,2.62h2v.49h-2.65Z"/><path class="cls-2" d="M120.29,25.05a.36.36,0,0,1-.11-.27.33.33,0,0,1,.11-.26.36.36,0,0,1,.26-.11.39.39,0,0,1,.27.11.35.35,0,0,1,.1.26.39.39,0,0,1-.1.27.39.39,0,0,1-.27.11A.36.36,0,0,1,120.29,25.05Zm0,.71h.6v3.55h-.6Z"/><path class="cls-2" d="M121.69,24.38h.59v4.93h-.59Z"/><path class="cls-3" d="M345.75,7.58h1v4.93h-1Zm.51,4.16h1.41a1.07,1.07,0,0,0,.67-.18.63.63,0,0,0,.24-.53h0a.66.66,0,0,0-.11-.38.61.61,0,0,0-.32-.24,1.47,1.47,0,0,0-.51-.08h-1.38v-.7h1.26a1.08,1.08,0,0,0,.64-.17.58.58,0,0,0,.22-.48h0a.51.51,0,0,0-.2-.45.85.85,0,0,0-.56-.16h-1.36V7.58h1.63a1.94,1.94,0,0,1,.8.15,1.19,1.19,0,0,1,.53.43,1.15,1.15,0,0,1,.18.65h0a1.08,1.08,0,0,1-.12.5,1.37,1.37,0,0,1-.34.38,1.21,1.21,0,0,1-.49.18v0a1.33,1.33,0,0,1,.61.19,1.13,1.13,0,0,1,.57,1h0a1.32,1.32,0,0,1-.2.75,1.43,1.43,0,0,1-.59.49,2.27,2.27,0,0,1-.91.17h-1.67Z"/><path class="cls-3" d="M350.22,7.58h2a2.12,2.12,0,0,1,.95.19,1.43,1.43,0,0,1,.6.54,1.65,1.65,0,0,1,.21.85h0a1.58,1.58,0,0,1-.24.87,1.37,1.37,0,0,1-.65.54l1,1.94H353l-.92-1.78h-.83v1.78h-1Zm1.93,2.36a.89.89,0,0,0,.6-.2.78.78,0,0,0,.22-.57h0a.72.72,0,0,0-.23-.56.85.85,0,0,0-.61-.21h-.88V9.94Z"/><path class="cls-3" d="M356.1,7.58h1.21L359,12.51h-1.09l-1.22-4h0l-1.23,4h-1.08Zm-.68,3H358v.78h-2.56Z"/><path class="cls-3" d="M359.53,7.58h.91l2.68,3.86-.87-.66h.43V7.58h1v4.93h-.89l-2.69-3.88.87.65h-.44v3.23h-1Z"/><path class="cls-3" d="M365.48,12.29a2.11,2.11,0,0,1-.82-.88,3,3,0,0,1-.28-1.37h0a3,3,0,0,1,.28-1.37,2.09,2.09,0,0,1,.82-.87,2.49,2.49,0,0,1,1.25-.31,2.27,2.27,0,0,1,1.06.24,1.83,1.83,0,0,1,.76.64,1.86,1.86,0,0,1,.33.92v0h-1V9.27a1.19,1.19,0,0,0-.21-.47,1.07,1.07,0,0,0-.38-.32,1.33,1.33,0,0,0-.54-.11,1.19,1.19,0,0,0-.69.2,1.4,1.4,0,0,0-.45.58,2.36,2.36,0,0,0-.16.89h0a2.41,2.41,0,0,0,.16.9,1.4,1.4,0,0,0,.45.58,1.24,1.24,0,0,0,.69.2,1.14,1.14,0,0,0,.53-.11,1.16,1.16,0,0,0,.39-.31,1.34,1.34,0,0,0,.22-.5v0h1v0a1.86,1.86,0,0,1-.33.93,2,2,0,0,1-.76.64,2.39,2.39,0,0,1-1.06.23A2.49,2.49,0,0,1,365.48,12.29Z"/><path class="cls-3" d="M369.52,7.58h1v2h2.22v-2h1v4.93h-1V10.44h-2.22v2.07h-1Z"/><path class="cls-3" d="M377,12.29a2.14,2.14,0,0,1-.83-.88,3.06,3.06,0,0,1-.29-1.36h0a2.9,2.9,0,0,1,.3-1.36A2.11,2.11,0,0,1,377,7.8a2.57,2.57,0,0,1,1.27-.31,2.53,2.53,0,0,1,1.26.31,2.08,2.08,0,0,1,.82.89,2.83,2.83,0,0,1,.3,1.35h0a2.86,2.86,0,0,1-.3,1.35,2.08,2.08,0,0,1-.82.89,2.5,2.5,0,0,1-1.26.31A2.57,2.57,0,0,1,377,12.29Zm2-.77a1.37,1.37,0,0,0,.46-.59,2.34,2.34,0,0,0,.16-.88h0a2.4,2.4,0,0,0-.16-.89,1.42,1.42,0,0,0-.46-.58,1.34,1.34,0,0,0-1.41,0,1.34,1.34,0,0,0-.46.58,2.21,2.21,0,0,0-.16.89h0a2.21,2.21,0,0,0,.16.89,1.34,1.34,0,0,0,.46.58,1.26,1.26,0,0,0,.71.2A1.23,1.23,0,0,0,378.94,11.52Z"/><path class="cls-3" d="M381.28,7.58h3.23v.85h-2.2V9.75h2v.82h-2v1.94h-1Z"/><path class="cls-3" d="M385.12,7.58h3.23v.85h-2.2V9.75h2v.82h-2v1.94h-1Z"/><path class="cls-3" d="M389,7.58h1v4.93h-1Z"/><path class="cls-3" d="M391.75,12.29a2.09,2.09,0,0,1-.81-.88,3,3,0,0,1-.29-1.37h0a3,3,0,0,1,.29-1.37,2.07,2.07,0,0,1,.81-.87A2.49,2.49,0,0,1,393,7.49a2.31,2.31,0,0,1,1.07.24,1.91,1.91,0,0,1,1.08,1.56v0h-1l0-.06a1.19,1.19,0,0,0-.21-.47,1,1,0,0,0-.38-.32,1.27,1.27,0,0,0-.54-.11,1.24,1.24,0,0,0-.69.2,1.3,1.3,0,0,0-.44.58,2.18,2.18,0,0,0-.16.89h0a2.23,2.23,0,0,0,.16.9,1.25,1.25,0,0,0,.45.58,1.19,1.19,0,0,0,.68.2,1.12,1.12,0,0,0,.53-.11,1,1,0,0,0,.39-.31,1.2,1.2,0,0,0,.22-.5v0h1v0a2,2,0,0,1-.34.93,2,2,0,0,1-.75.64,2.44,2.44,0,0,1-1.07.23A2.49,2.49,0,0,1,391.75,12.29Z"/><path class="cls-3" d="M395.79,7.58h3.27v.85h-2.23V9.61h2.11v.81h-2.11v1.24h2.23v.85h-3.27Z"/><path class="cls-3" d="M399.85,10a.54.54,0,0,1-.17-.39.54.54,0,0,1,.17-.4.51.51,0,0,1,.39-.16.5.5,0,0,1,.39.16.54.54,0,0,1,.16.4.53.53,0,0,1-.16.39.5.5,0,0,1-.39.16A.51.51,0,0,1,399.85,10Zm0,2.43a.54.54,0,0,1-.17-.39.54.54,0,0,1,.17-.4.55.55,0,0,1,.39-.16.55.55,0,0,1,.55.56.53.53,0,0,1-.16.39.5.5,0,0,1-.39.16A.51.51,0,0,1,399.85,12.41Z"/><path class="cls-3" d="M347.24,16h.61l1.81,4.93H349l-1.47-4.19h0l-1.47,4.19h-.65Zm-.9,3h2.41v.52h-2.41Z"/><path class="cls-3" d="M349.56,17.36h.62l1,2.92h0l1-2.92h.62l-1.31,3.55h-.6Z"/><path class="cls-3" d="M352.82,20.85a.39.39,0,0,1,.28-.67.37.37,0,0,1,.27.11.39.39,0,0,1,0,.56.37.37,0,0,1-.27.11A.41.41,0,0,1,352.82,20.85Z"/><path class="cls-3" d="M355.42,16H356v4.93h-.62Zm.31,2.62H357a1.16,1.16,0,0,0,.82-.27,1,1,0,0,0,.29-.76h0a1,1,0,0,0-.29-.76,1.16,1.16,0,0,0-.82-.27h-1.29V16h1.45a1.58,1.58,0,0,1,.82.2,1.41,1.41,0,0,1,.56.55,1.69,1.69,0,0,1,.2.82h0a1.73,1.73,0,0,1-.2.83A1.44,1.44,0,0,1,358,19a1.69,1.69,0,0,1-.82.2h-1.45Z"/><path class="cls-3" d="M359.37,17.36h.56v.57h0a.91.91,0,0,1,.32-.47.89.89,0,0,1,.54-.17h.24v.58l-.12,0h-.2a.74.74,0,0,0-.4.1.69.69,0,0,0-.27.29,1,1,0,0,0-.09.44v2.22h-.6Z"/><path class="cls-3" d="M361.28,20.85a.39.39,0,0,1,0-.56.37.37,0,0,1,.27-.11.41.41,0,0,1,.28.11.41.41,0,0,1,0,.56.41.41,0,0,1-.28.11A.37.37,0,0,1,361.28,20.85Z"/><path class="cls-3" d="M363.88,16h.71l1.71,4.16h0L368,16h.71v4.93h-.58V17.1h-.28l.67-1-2,4.79h-.52l-2-4.79.66,1h-.28v3.81h-.57Z"/><path class="cls-3" d="M369.92,20.85a1,1,0,0,1-.42-.38,1.13,1.13,0,0,1-.14-.56h0a.9.9,0,0,1,.33-.73,1.65,1.65,0,0,1,.95-.3l1.32-.08v.46l-1.25.08a1,1,0,0,0-.55.17.48.48,0,0,0-.2.4h0a.48.48,0,0,0,.2.4.81.81,0,0,0,.51.15,1.19,1.19,0,0,0,.51-.11.93.93,0,0,0,.35-.33.8.8,0,0,0,.13-.46v-1a.64.64,0,0,0-.2-.51.86.86,0,0,0-.58-.19.94.94,0,0,0-.55.15.61.61,0,0,0-.26.39v0h-.57v0a1.15,1.15,0,0,1,.2-.53,1.21,1.21,0,0,1,.48-.38,1.74,1.74,0,0,1,.72-.14,1.83,1.83,0,0,1,.73.14,1.1,1.1,0,0,1,.64,1v2.46h-.6v-.58h0a1.13,1.13,0,0,1-.27.34,1.29,1.29,0,0,1-.39.23,1.33,1.33,0,0,1-.45.08A1.35,1.35,0,0,1,369.92,20.85Z"/><path class="cls-3" d="M373,17.36h.56v.57h0a.91.91,0,0,1,.32-.47.89.89,0,0,1,.54-.17h.24v.58l-.12,0h-.2a.74.74,0,0,0-.4.1.69.69,0,0,0-.27.29,1,1,0,0,0-.09.44v2.22H373Z"/><path class="cls-3" d="M375.59,20.75a1,1,0,0,1-.24-.74V17.85h-.52v-.49h.52v-1H376v1h.67v.49H376V20a.5.5,0,0,0,.12.39.59.59,0,0,0,.36.1h.19V21h-.31A1.07,1.07,0,0,1,375.59,20.75Z"/><path class="cls-3" d="M377.35,16.65a.39.39,0,0,1-.11-.27.38.38,0,0,1,.37-.37.37.37,0,0,1,.27.11.36.36,0,0,1,.11.26.39.39,0,0,1-.11.27.36.36,0,0,1-.27.1A.35.35,0,0,1,377.35,16.65Zm0,.71h.59v3.55h-.59Z"/><path class="cls-3" d="M378.72,17.36h.6v.5h0a1.18,1.18,0,0,1,.42-.41,1.26,1.26,0,0,1,.67-.16,1.18,1.18,0,0,1,.91.35,1.36,1.36,0,0,1,.32,1v2.31h-.59v-2.2a1,1,0,0,0-.2-.67.8.8,0,0,0-.62-.23,1,1,0,0,0-.49.13.84.84,0,0,0-.32.35,1.12,1.12,0,0,0-.11.53v2.09h-.6Z"/><path class="cls-3" d="M383.94,16h.61v4.38h2.38v.55h-3Z"/><path class="cls-3" d="M388.06,20.82a1.1,1.1,0,0,1-.42-.46,1.65,1.65,0,0,1-.14-.7v-2.3h.59v2.2a.93.93,0,0,0,.21.66.74.74,0,0,0,.61.23,1,1,0,0,0,.49-.12.83.83,0,0,0,.32-.35,1.15,1.15,0,0,0,.12-.53V17.36h.59v3.55h-.59v-.5h0a1.15,1.15,0,0,1-.41.41,1.5,1.5,0,0,1-1.35,0Z"/><path class="cls-3" d="M391.63,20.75a1,1,0,0,1-.25-.74V17.85h-.51v-.49h.51v-1H392v1h.68v.49H392V20a.5.5,0,0,0,.12.39.63.63,0,0,0,.37.1h.19V21h-.32A1,1,0,0,1,391.63,20.75Z"/><path class="cls-3" d="M393.34,16h.6v1.94h0a1.06,1.06,0,0,1,.43-.46,1.23,1.23,0,0,1,.68-.17,1.21,1.21,0,0,1,.66.18,1.25,1.25,0,0,1,.45.51,1.65,1.65,0,0,1,.16.75v2.18h-.59V18.84a1.12,1.12,0,0,0-.24-.76.8.8,0,0,0-.65-.27,1,1,0,0,0-.48.13,1,1,0,0,0-.32.36,1.3,1.3,0,0,0-.11.54v2.07h-.6Z"/><path class="cls-3" d="M397.67,20.75a1.49,1.49,0,0,1-.56-.63,2.27,2.27,0,0,1-.2-1h0a2.3,2.3,0,0,1,.2-1,1.61,1.61,0,0,1,.56-.65,1.68,1.68,0,0,1,1.68,0,1.52,1.52,0,0,1,.54.63,2.28,2.28,0,0,1,.18.94v.21h-2.86v-.46h2.57l-.3.43V19a1.53,1.53,0,0,0-.13-.68A.8.8,0,0,0,399,18a.94.94,0,0,0-.5-.14.94.94,0,0,0-.87.55,1.67,1.67,0,0,0-.13.67v.23a1.52,1.52,0,0,0,.13.64.93.93,0,0,0,.37.41,1,1,0,0,0,.55.14,1.07,1.07,0,0,0,.41-.07.79.79,0,0,0,.29-.18.62.62,0,0,0,.17-.28v0H400v0a1.12,1.12,0,0,1-.17.41,1.25,1.25,0,0,1-.32.33,1.32,1.32,0,0,1-.44.23,1.91,1.91,0,0,1-.54.08A1.67,1.67,0,0,1,397.67,20.75Z"/><path class="cls-3" d="M400.67,17.36h.56v.57h0a.85.85,0,0,1,.32-.47.89.89,0,0,1,.54-.17h.24v.58l-.13,0H402a.74.74,0,0,0-.4.1.69.69,0,0,0-.27.29,1,1,0,0,0-.09.44v2.22h-.6Z"/><path class="cls-3" d="M404.36,16H405v4.93h-.61Zm.56,2.42H405L407.18,16H408l-2.07,2.22h0l-.94,1Zm.55.16.43-.44,2.24,2.79h-.79Z"/><path class="cls-3" d="M408.64,16.65a.39.39,0,0,1-.11-.27.36.36,0,0,1,.11-.26.37.37,0,0,1,.27-.11.38.38,0,0,1,.37.37.39.39,0,0,1-.11.27.35.35,0,0,1-.26.1A.36.36,0,0,1,408.64,16.65Zm0,.71h.59v3.55h-.59Z"/><path class="cls-3" d="M410,17.36h.6v.5h0a1.2,1.2,0,0,1,1.09-.57,1.18,1.18,0,0,1,.91.35,1.37,1.37,0,0,1,.33,1v2.31h-.6v-2.2a1,1,0,0,0-.2-.67.8.8,0,0,0-.62-.23,1,1,0,0,0-.49.13.91.91,0,0,0-.32.35,1.25,1.25,0,0,0-.11.53v2.09H410Z"/><path class="cls-3" d="M414.44,22.05a1.31,1.31,0,0,1-.53-.34,1,1,0,0,1-.25-.47v0h.6v0a.7.7,0,0,0,.33.3,1.55,1.55,0,0,0,.61.11,1,1,0,0,0,.72-.24.87.87,0,0,0,.26-.66V20.3h0a1.13,1.13,0,0,1-.27.34,1.33,1.33,0,0,1-.38.23A1.51,1.51,0,0,1,415,21a1.38,1.38,0,0,1-.78-.23,1.46,1.46,0,0,1-.53-.64,2.27,2.27,0,0,1-.19-1h0a2.19,2.19,0,0,1,.19-1,1.6,1.6,0,0,1,.53-.64,1.44,1.44,0,0,1,.8-.22,1.34,1.34,0,0,1,.46.08,1.36,1.36,0,0,1,.38.24,1.31,1.31,0,0,1,.27.35h0v-.6h.59v3.45a1.29,1.29,0,0,1-.19.72A1.33,1.33,0,0,1,416,22a2,2,0,0,1-.84.17A2.2,2.2,0,0,1,414.44,22.05Zm1.26-1.79a1.11,1.11,0,0,0,.35-.46,1.63,1.63,0,0,0,.13-.69h0a1.59,1.59,0,0,0-.13-.68,1,1,0,0,0-.36-.45.88.88,0,0,0-.53-.17,1,1,0,0,0-.54.16,1,1,0,0,0-.36.45,1.84,1.84,0,0,0-.13.69h0a1.86,1.86,0,0,0,.13.7,1,1,0,0,0,.36.45.89.89,0,0,0,.54.16A.91.91,0,0,0,415.7,20.26Z"/><path class="cls-3" d="M419.4,20.83a1.25,1.25,0,0,1-.47-.44,1.5,1.5,0,0,1-.19-.63v-.05h.61v0a.91.91,0,0,0,.11.34.63.63,0,0,0,.26.25.82.82,0,0,0,.4.1.79.79,0,0,0,.63-.24,1,1,0,0,0,.21-.69V16h.62v3.53a1.48,1.48,0,0,1-.39,1.09,1.41,1.41,0,0,1-1.06.39A1.49,1.49,0,0,1,419.4,20.83Z"/><path class="cls-3" d="M422.44,17.36H423v.57h0a.91.91,0,0,1,.32-.47.89.89,0,0,1,.54-.17h.24v.58a.29.29,0,0,0-.12,0h-.2a.74.74,0,0,0-.4.1.75.75,0,0,0-.27.29,1,1,0,0,0-.09.44v2.22h-.6Z"/><path class="cls-3" d="M424.35,20.85a.41.41,0,0,1,0-.56.39.39,0,0,1,.27-.11.39.39,0,0,1,.28.11.41.41,0,0,1,0,.56.39.39,0,0,1-.28.11A.39.39,0,0,1,424.35,20.85Z"/><path class="cls-3" d="M425.82,20.21h.63l-.5,1.67h-.43Z"/><path class="cls-3" d="M429.63,16.63h0l-1.31.91v-.62l1.31-.94h.61v4.93h-.6Z"/><path class="cls-3" d="M431.48,20.49l1.73-1.81c.23-.24.4-.43.52-.58a2,2,0,0,0,.24-.41,1.21,1.21,0,0,0,.06-.38h0a.84.84,0,0,0-.11-.45.9.9,0,0,0-.33-.31,1,1,0,0,0-.47-.11,1.28,1.28,0,0,0-.56.13,1.07,1.07,0,0,0-.38.35.87.87,0,0,0-.14.48h-.59v0a1.33,1.33,0,0,1,.22-.76,1.62,1.62,0,0,1,.6-.53,1.78,1.78,0,0,1,.83-.19,1.71,1.71,0,0,1,.8.18,1.38,1.38,0,0,1,.55.49,1.3,1.3,0,0,1,.2.7h0a1.39,1.39,0,0,1-.1.53,2.31,2.31,0,0,1-.35.57,10.1,10.1,0,0,1-.71.78l-1.35,1.38.18-.37v.37l-.18-.17h2.6v.55h-3.26Z"/><path class="cls-3" d="M436.55,20.87a1.72,1.72,0,0,1-.6-.42,1.92,1.92,0,0,1-.43-.76,3.49,3.49,0,0,1-.17-1.15h0a4,4,0,0,1,.23-1.42,1.93,1.93,0,0,1,.66-.9,1.68,1.68,0,0,1,1-.31,1.87,1.87,0,0,1,.76.15,1.42,1.42,0,0,1,.86,1l0,.05h-.63v0a.91.91,0,0,0-.22-.35.82.82,0,0,0-.34-.23,1.25,1.25,0,0,0-.45-.08,1.09,1.09,0,0,0-.61.17,1.17,1.17,0,0,0-.4.45,2.14,2.14,0,0,0-.23.66,4,4,0,0,0-.07.78l.15.81a1.2,1.2,0,0,0,.14.57,1.08,1.08,0,0,0,.41.41,1,1,0,0,0,.57.16,1.1,1.1,0,0,0,.57-.15,1.21,1.21,0,0,0,.41-.4,1.1,1.1,0,0,0,.15-.57h0a1.1,1.1,0,0,0-.15-.57,1,1,0,0,0-.39-.39,1.21,1.21,0,0,0-.58-.14,1.24,1.24,0,0,0-.58.14,1,1,0,0,0-.41.39,1.13,1.13,0,0,0-.14.56h-.21v-.84H436a1.36,1.36,0,0,1,.3-.39,1.49,1.49,0,0,1,.47-.29,1.66,1.66,0,0,1,.61-.11,1.69,1.69,0,0,1,.84.21,1.61,1.61,0,0,1,.58.58,1.69,1.69,0,0,1,.21.84h0a1.64,1.64,0,0,1-.22.86,1.78,1.78,0,0,1-.62.6,1.93,1.93,0,0,1-.9.21A2,2,0,0,1,436.55,20.87Z"/><path class="cls-3" d="M441,18.63h5.43v.56H441Z"/><path class="cls-3" d="M449.78,16.53h-1.56V16H452v.55h-1.56v4.38h-.61Z"/><path class="cls-3" d="M452.19,20.75a1.48,1.48,0,0,1-.57-.64,2.12,2.12,0,0,1-.21-1h0a2.12,2.12,0,0,1,.21-1,1.48,1.48,0,0,1,.57-.64,1.64,1.64,0,0,1,.86-.22,1.6,1.6,0,0,1,.86.22,1.5,1.5,0,0,1,.58.64,2.12,2.12,0,0,1,.21,1h0a2.19,2.19,0,0,1-.21,1,1.58,1.58,0,0,1-.57.63,1.74,1.74,0,0,1-1.73,0Zm1.41-.45a1,1,0,0,0,.36-.45,1.75,1.75,0,0,0,.13-.72h0a1.67,1.67,0,0,0-.13-.71.91.91,0,0,0-.36-.45,1,1,0,0,0-1.09,0,.91.91,0,0,0-.36.45,1.67,1.67,0,0,0-.13.71h0a1.75,1.75,0,0,0,.13.72.93.93,0,0,0,.91.6A1,1,0,0,0,453.6,20.3Z"/><path class="cls-3" d="M455.3,17.36h.56v.57h0a1,1,0,0,1,.32-.47.91.91,0,0,1,.54-.17H457v.58a.29.29,0,0,0-.12,0h-.2a.77.77,0,0,0-.4.1.73.73,0,0,0-.26.29.87.87,0,0,0-.1.44v2.22h-.59Z"/><path class="cls-3" d="M457.45,17.36H458v.57h0a.91.91,0,0,1,.32-.47.89.89,0,0,1,.54-.17h.24v.58a.29.29,0,0,0-.12,0h-.2a.74.74,0,0,0-.4.1.75.75,0,0,0-.27.29,1,1,0,0,0-.09.44v2.22h-.6Z"/><path class="cls-3" d="M460,20.75a1.45,1.45,0,0,1-.57-.63,2.27,2.27,0,0,1-.19-1h0a2.3,2.3,0,0,1,.19-1,1.69,1.69,0,0,1,.56-.65,1.56,1.56,0,0,1,.85-.23,1.49,1.49,0,0,1,.83.22,1.52,1.52,0,0,1,.54.63,2.13,2.13,0,0,1,.19.94v.21h-2.87v-.46h2.57l-.3.43V19a1.69,1.69,0,0,0-.12-.68.87.87,0,0,0-.35-.4.92.92,0,0,0-.5-.14,1,1,0,0,0-.51.14.89.89,0,0,0-.35.41,1.51,1.51,0,0,0-.13.67v.23a1.38,1.38,0,0,0,.13.64.85.85,0,0,0,.36.41,1.19,1.19,0,0,0,1,.07.75.75,0,0,0,.3-.18.73.73,0,0,0,.17-.28v0h.58v0a1.32,1.32,0,0,1-.17.41,1.43,1.43,0,0,1-.32.33,1.37,1.37,0,0,1-.45.23,1.8,1.8,0,0,1-.54.08A1.61,1.61,0,0,1,460,20.75Z"/><path class="cls-3" d="M465.73,16.63h0l-1.31.91v-.62l1.32-.94h.6v4.93h-.6Z"/><path class="cls-3" d="M468.33,20.68a2,2,0,0,1-.63-.88,3.91,3.91,0,0,1-.21-1.35h0a3.91,3.91,0,0,1,.21-1.35,2,2,0,0,1,.63-.88,1.67,1.67,0,0,1,1.94,0,2,2,0,0,1,.63.88,3.91,3.91,0,0,1,.21,1.35h0a3.91,3.91,0,0,1-.21,1.35,2,2,0,0,1-.63.88,1.67,1.67,0,0,1-1.94,0Zm1.61-.47a1.46,1.46,0,0,0,.41-.69,3.43,3.43,0,0,0,.14-1.07h0a3.43,3.43,0,0,0-.14-1.07,1.46,1.46,0,0,0-.41-.69.93.93,0,0,0-.64-.24.91.91,0,0,0-.64.24,1.46,1.46,0,0,0-.41.69,3.75,3.75,0,0,0-.14,1.07h0a3.75,3.75,0,0,0,.14,1.07,1.46,1.46,0,0,0,.41.69.92.92,0,0,0,.64.25A.93.93,0,0,0,469.94,20.21Z"/><path class="cls-3" d="M472.57,20.68a1.93,1.93,0,0,1-.62-.88,3.9,3.9,0,0,1-.22-1.35h0a3.9,3.9,0,0,1,.22-1.35,1.87,1.87,0,0,1,.62-.88,1.52,1.52,0,0,1,1-.31,1.55,1.55,0,0,1,1,.31,1.87,1.87,0,0,1,.62.88,3.67,3.67,0,0,1,.22,1.35h0a3.67,3.67,0,0,1-.22,1.35,1.93,1.93,0,0,1-.62.88,1.55,1.55,0,0,1-1,.31A1.52,1.52,0,0,1,472.57,20.68Zm1.62-.47a1.55,1.55,0,0,0,.41-.69,3.75,3.75,0,0,0,.14-1.07h0a3.75,3.75,0,0,0-.14-1.07,1.55,1.55,0,0,0-.41-.69,1,1,0,0,0-.65-.24.93.93,0,0,0-.64.24,1.55,1.55,0,0,0-.41.69,3.75,3.75,0,0,0-.14,1.07h0a3.75,3.75,0,0,0,.14,1.07,1.55,1.55,0,0,0,.41.69.93.93,0,0,0,.64.25A1,1,0,0,0,474.19,20.21Z"/><path class="cls-3" d="M476.82,20.68a1.93,1.93,0,0,1-.62-.88,3.67,3.67,0,0,1-.22-1.35h0a3.67,3.67,0,0,1,.22-1.35,1.87,1.87,0,0,1,.62-.88,1.67,1.67,0,0,1,1.94,0,2,2,0,0,1,.63.88,3.91,3.91,0,0,1,.21,1.35h0a3.91,3.91,0,0,1-.21,1.35,2,2,0,0,1-.63.88,1.67,1.67,0,0,1-1.94,0Zm1.61-.47a1.46,1.46,0,0,0,.41-.69,3.43,3.43,0,0,0,.14-1.07h0a3.43,3.43,0,0,0-.14-1.07,1.46,1.46,0,0,0-.41-.69.93.93,0,0,0-.64-.24.91.91,0,0,0-.64.24,1.46,1.46,0,0,0-.41.69,3.75,3.75,0,0,0-.14,1.07h0a3.75,3.75,0,0,0,.14,1.07,1.46,1.46,0,0,0,.41.69.92.92,0,0,0,.64.25A.93.93,0,0,0,478.43,20.21Z"/><path class="cls-3" d="M480.22,20.21h.63l-.5,1.67h-.43Z"/><path class="cls-3" d="M483.73,20.68a2.11,2.11,0,0,1-.79-.9,3,3,0,0,1-.28-1.36h0a2.94,2.94,0,0,1,.28-1.34,2,2,0,0,1,.79-.87,2.2,2.2,0,0,1,1.19-.31,2.12,2.12,0,0,1,1,.2,1.85,1.85,0,0,1,.69.54,2.16,2.16,0,0,1,.37.78l0,.07h-.64l0,0a1.53,1.53,0,0,0-.52-.73,1.48,1.48,0,0,0-.88-.26,1.53,1.53,0,0,0-.87.24,1.49,1.49,0,0,0-.56.67,2.55,2.55,0,0,0-.2,1.05h0a2.69,2.69,0,0,0,.2,1.07,1.55,1.55,0,0,0,.56.69,1.68,1.68,0,0,0,1.64.07,1.29,1.29,0,0,0,.52-.49,1.35,1.35,0,0,0,.19-.73v-.09H485V18.4h2v.47a2.34,2.34,0,0,1-.25,1.14,1.67,1.67,0,0,1-.71.73,2.33,2.33,0,0,1-1.13.25A2.2,2.2,0,0,1,483.73,20.68Z"/><path class="cls-3" d="M487.71,17.36h.56v.57h0a1,1,0,0,1,.32-.47.89.89,0,0,1,.54-.17h.24v.58a.29.29,0,0,0-.12,0h-.2a.77.77,0,0,0-.4.1.73.73,0,0,0-.26.29.87.87,0,0,0-.1.44v2.22h-.59Z"/><path class="cls-3" d="M489.61,20.85a.39.39,0,0,1,.28-.67.37.37,0,0,1,.27.11.39.39,0,0,1,0,.56.37.37,0,0,1-.27.11A.41.41,0,0,1,489.61,20.85Z"/><path class="cls-3" d="M493.39,16.63h0l-1.31.91v-.62l1.31-.94H494v4.93h-.6Z"/><path class="cls-3" d="M496,20.68a2,2,0,0,1-.62-.88,3.91,3.91,0,0,1-.21-1.35h0a3.91,3.91,0,0,1,.21-1.35,2,2,0,0,1,.62-.88,1.69,1.69,0,0,1,1.95,0,1.87,1.87,0,0,1,.62.88,3.67,3.67,0,0,1,.22,1.35h0a3.67,3.67,0,0,1-.22,1.35,1.93,1.93,0,0,1-.62.88,1.69,1.69,0,0,1-1.95,0Zm1.62-.47a1.46,1.46,0,0,0,.41-.69,3.75,3.75,0,0,0,.14-1.07h0a3.75,3.75,0,0,0-.14-1.07,1.46,1.46,0,0,0-.41-.69,1,1,0,0,0-1.29,0,1.54,1.54,0,0,0-.4.69,3.43,3.43,0,0,0-.14,1.07h0a3.43,3.43,0,0,0,.14,1.07,1.54,1.54,0,0,0,.4.69,1,1,0,0,0,1.29,0Z"/><path class="cls-3" d="M500.23,20.68a1.93,1.93,0,0,1-.62-.88,3.67,3.67,0,0,1-.22-1.35h0a3.67,3.67,0,0,1,.22-1.35,1.87,1.87,0,0,1,.62-.88,1.67,1.67,0,0,1,1.94,0,1.89,1.89,0,0,1,.63.88,3.9,3.9,0,0,1,.22,1.35h0a3.9,3.9,0,0,1-.22,1.35,1.94,1.94,0,0,1-.63.88,1.67,1.67,0,0,1-1.94,0Zm1.62-.47a1.65,1.65,0,0,0,.41-.69,3.75,3.75,0,0,0,.14-1.07h0a3.75,3.75,0,0,0-.14-1.07,1.65,1.65,0,0,0-.41-.69,1,1,0,0,0-.65-.24.93.93,0,0,0-.64.24,1.55,1.55,0,0,0-.41.69,3.75,3.75,0,0,0-.14,1.07h0a3.75,3.75,0,0,0,.14,1.07,1.55,1.55,0,0,0,.41.69.93.93,0,0,0,.64.25A1,1,0,0,0,501.85,20.21Z"/><path class="cls-3" d="M506.07,19.89h-2.48v-.56l.44-.67.43-.67.43-.67.44-.67c.14-.22.28-.45.43-.67h.91v3.37h.69v.54h-.69v1h-.6Zm0-.54V16.51h0l-.37.56c-.12.19-.24.38-.37.56s-.24.38-.37.57l-.37.57-.37.56v0Z"/><path class="cls-3" d="M345.81,24.38h1.66a2.54,2.54,0,0,1,1.25.29,2,2,0,0,1,.8.84,2.87,2.87,0,0,1,.28,1.33h0a2.87,2.87,0,0,1-.28,1.33,2,2,0,0,1-.79.85,2.61,2.61,0,0,1-1.26.29h-1.66Zm1.62,4.38a1.88,1.88,0,0,0,.95-.23,1.41,1.41,0,0,0,.59-.64,2.5,2.5,0,0,0,.2-1h0a2.5,2.5,0,0,0-.2-1,1.49,1.49,0,0,0-.59-.65,2,2,0,0,0-.95-.22h-1v3.83Z"/><path class="cls-3" d="M351.06,29.15a1.45,1.45,0,0,1-.57-.63,2.27,2.27,0,0,1-.19-1h0a2.16,2.16,0,0,1,.2-1,1.59,1.59,0,0,1,.55-.65,1.56,1.56,0,0,1,.85-.23,1.49,1.49,0,0,1,.83.22,1.39,1.39,0,0,1,.54.63,2.13,2.13,0,0,1,.19.94v.21h-2.87v-.46h2.57l-.3.43v-.23a1.69,1.69,0,0,0-.12-.68.85.85,0,0,0-.34-.4,1,1,0,0,0-.51-.14.91.91,0,0,0-.86.55,1.51,1.51,0,0,0-.13.67v.23a1.41,1.41,0,0,0,.13.64.85.85,0,0,0,.36.41,1.19,1.19,0,0,0,1,.07.75.75,0,0,0,.3-.18.62.62,0,0,0,.17-.28v0h.58v0a1.32,1.32,0,0,1-.17.41,1.25,1.25,0,0,1-.32.33,1.37,1.37,0,0,1-.45.23,1.8,1.8,0,0,1-.54.08A1.64,1.64,0,0,1,351.06,29.15Z"/><path class="cls-3" d="M354.09,24.38h.59v4.93h-.59Z"/><path class="cls-3" d="M357.88,29.08a2.05,2.05,0,0,1-.78-.89,3,3,0,0,1-.28-1.35h0a3,3,0,0,1,.28-1.35,2,2,0,0,1,.78-.88,2.23,2.23,0,0,1,1.2-.31,2.18,2.18,0,0,1,.93.19,2,2,0,0,1,.7.54,1.86,1.86,0,0,1,.37.82v0h-.62l0-.08a1.42,1.42,0,0,0-.29-.51,1.23,1.23,0,0,0-.46-.32,1.56,1.56,0,0,0-.62-.12,1.53,1.53,0,0,0-.86.25,1.63,1.63,0,0,0-.57.69,2.54,2.54,0,0,0-.2,1h0a2.62,2.62,0,0,0,.2,1.05,1.63,1.63,0,0,0,.57.69,1.53,1.53,0,0,0,.86.25,1.51,1.51,0,0,0,.61-.12,1.18,1.18,0,0,0,.47-.33,1.53,1.53,0,0,0,.3-.55v0h.62v0a1.81,1.81,0,0,1-.37.82,1.88,1.88,0,0,1-.7.54,2.18,2.18,0,0,1-.93.19A2.23,2.23,0,0,1,357.88,29.08Z"/><path class="cls-3" d="M362.14,29.25a1.07,1.07,0,0,1-.41-.38,1,1,0,0,1-.15-.56h0a.88.88,0,0,1,.34-.73,1.6,1.6,0,0,1,.95-.3l1.31-.08v.46l-1.24.08a1,1,0,0,0-.55.17.46.46,0,0,0-.2.4h0a.47.47,0,0,0,.19.4.82.82,0,0,0,.52.15,1.18,1.18,0,0,0,.5-.11,1,1,0,0,0,.36-.33.88.88,0,0,0,.13-.46V26.91a.66.66,0,0,0-.21-.51.81.81,0,0,0-.57-.19.92.92,0,0,0-.55.15.67.67,0,0,0-.27.39v0h-.58v0a1,1,0,0,1,.2-.53,1.12,1.12,0,0,1,.47-.38,1.83,1.83,0,0,1,.73-.14,1.74,1.74,0,0,1,.72.14,1.11,1.11,0,0,1,.47.41,1,1,0,0,1,.17.61v2.46h-.59v-.58h0a1,1,0,0,1-.27.34,1.14,1.14,0,0,1-.38.23,1.44,1.44,0,0,1-.46.08A1.52,1.52,0,0,1,362.14,29.25Z"/><path class="cls-3" d="M365.78,29.25a1.15,1.15,0,0,1-.48-.38,1.16,1.16,0,0,1-.22-.55v0h.59v0a.66.66,0,0,0,.26.42,1,1,0,0,0,.56.14,1.33,1.33,0,0,0,.42-.06.55.55,0,0,0,.26-.18.45.45,0,0,0,.09-.28h0a.45.45,0,0,0-.11-.31.91.91,0,0,0-.43-.19l-.56-.14a1.64,1.64,0,0,1-.75-.36.84.84,0,0,1-.24-.62h0a.93.93,0,0,1,.16-.54,1.13,1.13,0,0,1,.46-.37,1.65,1.65,0,0,1,.68-.13,1.45,1.45,0,0,1,.68.14,1.2,1.2,0,0,1,.46.37,1,1,0,0,1,.18.54v0h-.56v0a.64.64,0,0,0-.22-.42.86.86,0,0,0-.53-.16.84.84,0,0,0-.37.07.45.45,0,0,0-.24.18.45.45,0,0,0-.09.28h0a.46.46,0,0,0,.13.31,1,1,0,0,0,.43.2l.56.13a1.63,1.63,0,0,1,.76.36.82.82,0,0,1,.22.61h0a.89.89,0,0,1-.18.55,1.16,1.16,0,0,1-.49.37,1.8,1.8,0,0,1-.71.14A1.93,1.93,0,0,1,365.78,29.25Z"/><path class="cls-3" d="M368.92,29.15a1,1,0,0,1-.24-.74V26.25h-.52v-.49h.52v-1h.61v1H370v.49h-.68V28.4a.5.5,0,0,0,.12.39.65.65,0,0,0,.37.1H370v.49h-.32A1,1,0,0,1,368.92,29.15Z"/><path class="cls-3" d="M370.68,25.05a.36.36,0,0,1-.11-.27.33.33,0,0,1,.11-.26.36.36,0,0,1,.52,0,.33.33,0,0,1,.11.26.37.37,0,0,1-.63.27Zm0,.71h.6v3.55h-.6Z"/><path class="cls-3" d="M372.08,24.38h.59v4.93h-.59Z"/><path class="cls-3" d="M373.51,24.38h.59v1.94h0a1.06,1.06,0,0,1,.43-.46,1.39,1.39,0,0,1,1.35,0,1.16,1.16,0,0,1,.44.51,1.62,1.62,0,0,1,.16.75v2.18h-.59V27.24a1.15,1.15,0,0,0-.23-.76.83.83,0,0,0-.65-.27.9.9,0,0,0-.48.13,1,1,0,0,0-.33.36,1.3,1.3,0,0,0-.11.54v2.07h-.59Z"/><path class="cls-3" d="M377.86,29.15a1.5,1.5,0,0,1-.58-.64,2.12,2.12,0,0,1-.21-1h0a2.12,2.12,0,0,1,.21-1,1.5,1.5,0,0,1,.58-.64,1.79,1.79,0,0,1,1.72,0,1.5,1.5,0,0,1,.58.64,2.12,2.12,0,0,1,.21,1h0a2.12,2.12,0,0,1-.21,1,1.5,1.5,0,0,1-.58.64,1.6,1.6,0,0,1-.86.23A1.62,1.62,0,0,1,377.86,29.15Zm1.41-.45a1.16,1.16,0,0,0,.36-.45,1.93,1.93,0,0,0,.13-.72h0a1.84,1.84,0,0,0-.13-.71,1,1,0,0,0-.36-.45,1,1,0,0,0-.55-.16,1,1,0,0,0-.54.16,1,1,0,0,0-.37.45,1.84,1.84,0,0,0-.13.71h0a1.93,1.93,0,0,0,.13.72,1.1,1.1,0,0,0,.37.45,1,1,0,0,0,.54.15A1,1,0,0,0,379.27,28.7Z"/><path class="cls-3" d="M382.21,27h5.43v.56h-5.43Z"/><path class="cls-3" d="M389.74,24.38h1.85a1.78,1.78,0,0,1,.83.18,1.29,1.29,0,0,1,.55.51,1.51,1.51,0,0,1,.2.78h0a1.46,1.46,0,0,1-.27.88,1.34,1.34,0,0,1-.73.52l1.15,2h-.73l-1-1.95h-1.18v1.95h-.62Zm1.8,2.44a1,1,0,0,0,.73-.25.93.93,0,0,0,.26-.7h0a.9.9,0,0,0-.27-.69,1.09,1.09,0,0,0-.75-.24h-1.15v1.89Z"/><path class="cls-3" d="M393.92,25.05a.36.36,0,0,1-.11-.27.33.33,0,0,1,.11-.26.36.36,0,0,1,.26-.11.39.39,0,0,1,.27.11.35.35,0,0,1,.1.26.39.39,0,0,1-.1.27.39.39,0,0,1-.27.11A.36.36,0,0,1,393.92,25.05Zm0,.71h.6v3.55h-.6Z"/><path class="cls-3" d="M395.9,29.15a1.5,1.5,0,0,1-.58-.64,2.12,2.12,0,0,1-.21-1h0a2.12,2.12,0,0,1,.21-1,1.5,1.5,0,0,1,.58-.64,1.79,1.79,0,0,1,1.72,0,1.5,1.5,0,0,1,.58.64,2.12,2.12,0,0,1,.21,1h0a2.12,2.12,0,0,1-.21,1,1.5,1.5,0,0,1-.58.64,1.6,1.6,0,0,1-.86.23A1.62,1.62,0,0,1,395.9,29.15Zm1.41-.45a1.16,1.16,0,0,0,.36-.45,1.93,1.93,0,0,0,.13-.72h0a1.84,1.84,0,0,0-.13-.71,1,1,0,0,0-.36-.45,1,1,0,0,0-.55-.16,1,1,0,0,0-.54.16,1,1,0,0,0-.37.45,1.84,1.84,0,0,0-.13.71h0a1.93,1.93,0,0,0,.13.72,1.1,1.1,0,0,0,.37.45,1,1,0,0,0,.54.15A1,1,0,0,0,397.31,28.7Z"/><path class="cls-3" d="M401,29.15a1.47,1.47,0,0,1-.53-.64,2.45,2.45,0,0,1-.19-1h0a2.4,2.4,0,0,1,.19-1,1.54,1.54,0,0,1,.53-.64,1.33,1.33,0,0,1,.79-.23,1.27,1.27,0,0,1,.67.18,1.18,1.18,0,0,1,.46.48h0v-2h.59v4.93h-.59v-.6h0a1.25,1.25,0,0,1-.45.49,1.27,1.27,0,0,1-.67.18A1.42,1.42,0,0,1,401,29.15Zm1.44-.46a1.07,1.07,0,0,0,.37-.46,1.68,1.68,0,0,0,.13-.7h0a1.63,1.63,0,0,0-.13-.69,1.07,1.07,0,0,0-.37-.46.88.88,0,0,0-.53-.17,1,1,0,0,0-.54.16,1,1,0,0,0-.35.46,1.68,1.68,0,0,0-.13.7h0a1.73,1.73,0,0,0,.13.71,1,1,0,0,0,.35.45.89.89,0,0,0,.54.16A.88.88,0,0,0,402.42,28.69Z"/><path class="cls-3" d="M404.9,29.15a1.49,1.49,0,0,1-.56-.63,2.27,2.27,0,0,1-.2-1h0a2.3,2.3,0,0,1,.2-1,1.61,1.61,0,0,1,.56-.65,1.68,1.68,0,0,1,1.68,0,1.43,1.43,0,0,1,.53.63,2.13,2.13,0,0,1,.19.94v.21h-2.86v-.46H407l-.3.43v-.23a1.53,1.53,0,0,0-.13-.68.8.8,0,0,0-.34-.4.94.94,0,0,0-.5-.14,1,1,0,0,0-.51.14,1,1,0,0,0-.36.41,1.67,1.67,0,0,0-.13.67v.23a1.55,1.55,0,0,0,.13.64,1,1,0,0,0,.36.41,1,1,0,0,0,.56.14,1.07,1.07,0,0,0,.41-.07.79.79,0,0,0,.29-.18.62.62,0,0,0,.17-.28v0h.59v0a1.32,1.32,0,0,1-.17.41,1.25,1.25,0,0,1-.32.33,1.42,1.42,0,0,1-.44.23,1.91,1.91,0,0,1-.54.08A1.67,1.67,0,0,1,404.9,29.15Z"/><path class="cls-3" d="M409.76,29.23a1.17,1.17,0,0,1-.47-.44,1.5,1.5,0,0,1-.19-.63v-.05h.62v0a.91.91,0,0,0,.11.34.6.6,0,0,0,.25.25.86.86,0,0,0,.41.1.82.82,0,0,0,.63-.24,1,1,0,0,0,.21-.69V24.38h.62v3.53a1.48,1.48,0,0,1-.39,1.09,1.42,1.42,0,0,1-1.07.39A1.47,1.47,0,0,1,409.76,29.23Z"/><path class="cls-3" d="M413.15,29.25a1.07,1.07,0,0,1-.41-.38,1,1,0,0,1-.15-.56h0a.88.88,0,0,1,.34-.73,1.6,1.6,0,0,1,.95-.3l1.31-.08v.46l-1.24.08a1,1,0,0,0-.55.17.46.46,0,0,0-.2.4h0a.47.47,0,0,0,.19.4.82.82,0,0,0,.52.15,1.18,1.18,0,0,0,.5-.11,1,1,0,0,0,.36-.33.88.88,0,0,0,.13-.46V26.91a.66.66,0,0,0-.21-.51.81.81,0,0,0-.57-.19.92.92,0,0,0-.55.15.67.67,0,0,0-.27.39v0h-.58v0a1,1,0,0,1,.2-.53,1.12,1.12,0,0,1,.47-.38,1.81,1.81,0,0,1,.72-.14,1.76,1.76,0,0,1,.73.14,1.11,1.11,0,0,1,.47.41,1,1,0,0,1,.17.61v2.46h-.59v-.58h0a1,1,0,0,1-.27.34,1.14,1.14,0,0,1-.38.23,1.44,1.44,0,0,1-.46.08A1.52,1.52,0,0,1,413.15,29.25Z"/><path class="cls-3" d="M416.25,25.76h.59v.5h0a1.15,1.15,0,0,1,.41-.41,1.29,1.29,0,0,1,.68-.16,1.2,1.2,0,0,1,.91.35,1.41,1.41,0,0,1,.32,1v2.31h-.6v-2.2a.93.93,0,0,0-.2-.66.75.75,0,0,0-.61-.24,1,1,0,0,0-.49.13.78.78,0,0,0-.32.35,1.12,1.12,0,0,0-.12.53v2.09h-.59Z"/><path class="cls-3" d="M420.52,29.15a1.49,1.49,0,0,1-.56-.63,2.27,2.27,0,0,1-.2-1h0a2.3,2.3,0,0,1,.2-1,1.61,1.61,0,0,1,.56-.65,1.68,1.68,0,0,1,1.68,0,1.43,1.43,0,0,1,.53.63,2.13,2.13,0,0,1,.19.94v.21h-2.86v-.46h2.57l-.3.43v-.23a1.53,1.53,0,0,0-.13-.68.8.8,0,0,0-.34-.4.94.94,0,0,0-.5-.14,1,1,0,0,0-.51.14,1,1,0,0,0-.36.41,1.67,1.67,0,0,0-.13.67v.23a1.55,1.55,0,0,0,.13.64,1,1,0,0,0,.36.41,1,1,0,0,0,.56.14,1.07,1.07,0,0,0,.41-.07.79.79,0,0,0,.29-.18.62.62,0,0,0,.17-.28v0h.59v0a1.12,1.12,0,0,1-.17.41,1.25,1.25,0,0,1-.32.33,1.42,1.42,0,0,1-.44.23,1.91,1.91,0,0,1-.54.08A1.67,1.67,0,0,1,420.52,29.15Z"/><path class="cls-3" d="M423.59,25.05a.4.4,0,0,1-.11-.27.36.36,0,0,1,.11-.26.37.37,0,0,1,.27-.11.38.38,0,0,1,.37.37.4.4,0,0,1-.11.27.36.36,0,0,1-.26.11A.37.37,0,0,1,423.59,25.05Zm0,.71h.59v3.55h-.59Z"/><path class="cls-3" d="M425,25.76h.56v.57h0a.87.87,0,0,1,.32-.47.89.89,0,0,1,.54-.17h.24v.58a.29.29,0,0,0-.12,0h-.2a.74.74,0,0,0-.4.1.69.69,0,0,0-.27.29,1,1,0,0,0-.09.44v2.22H425Z"/><path class="cls-3" d="M427.56,29.15a1.5,1.5,0,0,1-.58-.64,2.12,2.12,0,0,1-.21-1h0a2.12,2.12,0,0,1,.21-1,1.5,1.5,0,0,1,.58-.64,1.79,1.79,0,0,1,1.72,0,1.5,1.5,0,0,1,.58.64,2.12,2.12,0,0,1,.21,1h0a2.12,2.12,0,0,1-.21,1,1.5,1.5,0,0,1-.58.64,1.6,1.6,0,0,1-.86.23A1.62,1.62,0,0,1,427.56,29.15ZM429,28.7a1.16,1.16,0,0,0,.36-.45,1.93,1.93,0,0,0,.13-.72h0a1.84,1.84,0,0,0-.13-.71,1,1,0,0,0-.36-.45,1,1,0,0,0-.55-.16,1,1,0,0,0-.54.16,1,1,0,0,0-.37.45,1.84,1.84,0,0,0-.13.71h0a1.93,1.93,0,0,0,.13.72,1.1,1.1,0,0,0,.37.45,1,1,0,0,0,.55.15A1,1,0,0,0,429,28.7Z"/><path class="cls-3" d="M430.52,28.61h.62l-.5,1.67h-.42Z"/><path class="cls-3" d="M433.15,24.38H435a1.81,1.81,0,0,1,.83.18,1.35,1.35,0,0,1,.55.51,1.5,1.5,0,0,1,.19.78h0a1.52,1.52,0,0,1-.26.88,1.34,1.34,0,0,1-.73.52l1.14,2H436l-1.06-1.95h-1.18v1.95h-.61Zm1.79,2.44a1.07,1.07,0,0,0,.74-.25.92.92,0,0,0,.25-.7h0a.9.9,0,0,0-.27-.69,1.08,1.08,0,0,0-.74-.24h-1.16v1.89Z"/><path class="cls-3" d="M437.67,29.23a1.24,1.24,0,0,1-.47-.44,1.5,1.5,0,0,1-.19-.63v-.05h.61v0a.76.76,0,0,0,.11.34.55.55,0,0,0,.25.25.83.83,0,0,0,.41.1.78.78,0,0,0,.62-.24,1,1,0,0,0,.22-.69V24.38h.61v3.53a1.52,1.52,0,0,1-.38,1.09,1.45,1.45,0,0,1-1.07.39A1.49,1.49,0,0,1,437.67,29.23Z"/><path class="cls-3" d="M442,27h5.43v.56H442Z"/><path class="cls-3" d="M449.35,28.87,452.17,25v0h-2.72v-.55h3.49v.44l-2.8,3.92v0H453v.55h-3.65Z"/><path class="cls-3" d="M453.81,24.38h.62v4.93h-.62Z"/><path class="cls-3" d="M455.39,24.38H456v4.93h-.61Zm.3,2.62H457a1.18,1.18,0,0,0,.82-.27,1,1,0,0,0,.29-.76h0a1,1,0,0,0-.29-.76,1.18,1.18,0,0,0-.82-.27h-1.3v-.55h1.45a1.66,1.66,0,0,1,.82.2,1.35,1.35,0,0,1,.56.55,1.59,1.59,0,0,1,.21.82h0a1.63,1.63,0,0,1-.21.83,1.44,1.44,0,0,1-.56.56,1.66,1.66,0,0,1-.82.2h-1.45Z"/><path class="cls-3" d="M459.43,26.6a.36.36,0,0,1-.12-.28.41.41,0,0,1,.39-.39.36.36,0,0,1,.28.12.33.33,0,0,1,.11.27.38.38,0,0,1-.39.39A.33.33,0,0,1,459.43,26.6Zm0,2.65a.39.39,0,0,1,0-.56.37.37,0,0,1,.27-.11.39.39,0,0,1,.28.11.41.41,0,0,1,0,.56.39.39,0,0,1-.28.11A.37.37,0,0,1,459.43,29.25Z"/><path class="cls-3" d="M462.29,28.89,464,27.08c.22-.24.39-.43.51-.58a1.39,1.39,0,0,0,.24-.41,1,1,0,0,0,.07-.39h0a.84.84,0,0,0-.12-.45.8.8,0,0,0-.33-.3.89.89,0,0,0-.47-.12,1.21,1.21,0,0,0-.55.13,1,1,0,0,0-.38.35.81.81,0,0,0-.15.48h-.59v0a1.33,1.33,0,0,1,.22-.76,1.62,1.62,0,0,1,.6-.53,1.79,1.79,0,0,1,.84-.19,1.67,1.67,0,0,1,.79.18,1.31,1.31,0,0,1,.55.49,1.22,1.22,0,0,1,.2.7h0a1.39,1.39,0,0,1-.1.53,2.31,2.31,0,0,1-.35.57c-.17.21-.4.47-.7.78L463,28.94l.18-.38v.38l-.18-.18h2.6v.55h-3.26Z"/><path class="cls-3" d="M467,29.08a2,2,0,0,1-.62-.88,3.91,3.91,0,0,1-.21-1.35h0a3.91,3.91,0,0,1,.21-1.35,2,2,0,0,1,.62-.88,1.69,1.69,0,0,1,1.95,0,1.87,1.87,0,0,1,.62.88,3.67,3.67,0,0,1,.22,1.35h0a3.67,3.67,0,0,1-.22,1.35,1.93,1.93,0,0,1-.62.88,1.69,1.69,0,0,1-1.95,0Zm1.62-.47a1.55,1.55,0,0,0,.41-.69,3.75,3.75,0,0,0,.14-1.07h0a3.75,3.75,0,0,0-.14-1.07,1.55,1.55,0,0,0-.41-.69,1,1,0,0,0-1.29,0,1.45,1.45,0,0,0-.4.69,3.43,3.43,0,0,0-.14,1.07h0a3.43,3.43,0,0,0,.14,1.07,1.45,1.45,0,0,0,.4.69,1,1,0,0,0,1.29,0Z"/><path class="cls-3" d="M472.88,24.94h-2.66v-.55h3.27V25l-2.2,4.36h-.64Z"/><path class="cls-3" d="M475.23,29.27a1.72,1.72,0,0,1-.6-.42,2,2,0,0,1-.43-.76,3.51,3.51,0,0,1-.16-1.15h0a4,4,0,0,1,.22-1.42,1.93,1.93,0,0,1,.66-.9,1.68,1.68,0,0,1,1-.31,1.87,1.87,0,0,1,.76.15,1.43,1.43,0,0,1,.56.41,1.55,1.55,0,0,1,.31.63v.05H477v0a1,1,0,0,0-.21-.35.93.93,0,0,0-.35-.23,1.25,1.25,0,0,0-.45-.08,1.09,1.09,0,0,0-.61.17,1.17,1.17,0,0,0-.4.45,2.14,2.14,0,0,0-.23.66,4,4,0,0,0-.07.78l.15.81a1.2,1.2,0,0,0,.14.57,1.08,1.08,0,0,0,.41.41,1,1,0,0,0,.57.16,1.1,1.1,0,0,0,.57-.15,1.21,1.21,0,0,0,.41-.4,1.1,1.1,0,0,0,.15-.57h0a1.21,1.21,0,0,0-.14-.58,1.15,1.15,0,0,0-.4-.39,1.21,1.21,0,0,0-.58-.14,1.24,1.24,0,0,0-.58.14,1,1,0,0,0-.41.39,1.13,1.13,0,0,0-.14.56h-.21v-.84h.07a1.36,1.36,0,0,1,.3-.39,1.49,1.49,0,0,1,.47-.29,1.66,1.66,0,0,1,.61-.11,1.69,1.69,0,0,1,.84.21,1.61,1.61,0,0,1,.58.58,1.69,1.69,0,0,1,.21.84h0a1.64,1.64,0,0,1-.22.86,1.7,1.7,0,0,1-.62.6,1.9,1.9,0,0,1-.9.21A2,2,0,0,1,475.23,29.27Z"/><path class="cls-3" d="M479.3,29.21a1.57,1.57,0,0,1-.59-.49,1.49,1.49,0,0,1-.26-.72v0h.6v0a1,1,0,0,0,.17.44,1.1,1.1,0,0,0,.39.31,1.12,1.12,0,0,0,.53.11,1.15,1.15,0,0,0,.59-.14,1.1,1.1,0,0,0,.4-.4,1.21,1.21,0,0,0,.14-.58h0a1.21,1.21,0,0,0-.14-.58,1.07,1.07,0,0,0-.4-.39,1.14,1.14,0,0,0-.58-.15,1.45,1.45,0,0,0-.47.08,1,1,0,0,0-.37.22,1.59,1.59,0,0,0-.13.13l-.11.16h-.54l.25-2.81h2.83v.55H479.3l-.17,1.65h0a1.26,1.26,0,0,1,.47-.38,1.76,1.76,0,0,1,.66-.13,1.7,1.7,0,0,1,.84.22,1.54,1.54,0,0,1,.58.58,1.64,1.64,0,0,1,.21.84h0a1.72,1.72,0,0,1-.23.88,1.6,1.6,0,0,1-.62.59,1.94,1.94,0,0,1-.91.21A1.89,1.89,0,0,1,479.3,29.21Z"/><path class="cls-3" d="M482.55,27h2.18v.56h-2.18Z"/><path class="cls-3" d="M486.29,29.08a1.93,1.93,0,0,1-.62-.88,3.67,3.67,0,0,1-.22-1.35h0a3.67,3.67,0,0,1,.22-1.35,1.87,1.87,0,0,1,.62-.88,1.67,1.67,0,0,1,1.94,0,2,2,0,0,1,.63.88,3.91,3.91,0,0,1,.21,1.35h0a3.91,3.91,0,0,1-.21,1.35,2,2,0,0,1-.63.88,1.67,1.67,0,0,1-1.94,0Zm1.61-.47a1.46,1.46,0,0,0,.41-.69,3.43,3.43,0,0,0,.14-1.07h0a3.43,3.43,0,0,0-.14-1.07,1.46,1.46,0,0,0-.41-.69.93.93,0,0,0-.64-.24.91.91,0,0,0-.64.24,1.46,1.46,0,0,0-.41.69,3.75,3.75,0,0,0-.14,1.07h0a3.75,3.75,0,0,0,.14,1.07,1.46,1.46,0,0,0,.41.69.87.87,0,0,0,.64.25A.89.89,0,0,0,487.9,28.61Z"/><path class="cls-3" d="M490.53,29.08a1.93,1.93,0,0,1-.62-.88,3.91,3.91,0,0,1-.21-1.35h0a3.91,3.91,0,0,1,.21-1.35,1.87,1.87,0,0,1,.62-.88,1.69,1.69,0,0,1,2,0,1.87,1.87,0,0,1,.62.88,3.67,3.67,0,0,1,.22,1.35h0a3.67,3.67,0,0,1-.22,1.35,1.93,1.93,0,0,1-.62.88,1.69,1.69,0,0,1-2,0Zm1.62-.47a1.55,1.55,0,0,0,.41-.69,3.75,3.75,0,0,0,.14-1.07h0a3.75,3.75,0,0,0-.14-1.07,1.55,1.55,0,0,0-.41-.69,1,1,0,0,0-.65-.24.93.93,0,0,0-.64.24,1.55,1.55,0,0,0-.41.69,3.75,3.75,0,0,0-.14,1.07h0a3.75,3.75,0,0,0,.14,1.07,1.55,1.55,0,0,0,.41.69.89.89,0,0,0,.64.25A.91.91,0,0,0,492.15,28.61Z"/><path class="cls-3" d="M494.78,29.08a1.93,1.93,0,0,1-.62-.88,3.67,3.67,0,0,1-.22-1.35h0a3.67,3.67,0,0,1,.22-1.35,1.87,1.87,0,0,1,.62-.88,1.67,1.67,0,0,1,1.94,0,2,2,0,0,1,.63.88,3.91,3.91,0,0,1,.21,1.35h0a3.91,3.91,0,0,1-.21,1.35,2,2,0,0,1-.63.88,1.67,1.67,0,0,1-1.94,0Zm1.61-.47a1.46,1.46,0,0,0,.41-.69,3.41,3.41,0,0,0,.15-1.07h0a3.41,3.41,0,0,0-.15-1.07,1.46,1.46,0,0,0-.41-.69.93.93,0,0,0-.64-.24.91.91,0,0,0-.64.24,1.46,1.46,0,0,0-.41.69,3.75,3.75,0,0,0-.14,1.07h0a3.75,3.75,0,0,0,.14,1.07,1.46,1.46,0,0,0,.41.69.87.87,0,0,0,.64.25A.89.89,0,0,0,496.39,28.61Z"/><path class="cls-3" d="M499.51,27h5.43v.56h-5.43Z"/><path class="cls-3" d="M507,24.38h.62v4.93H507Zm.31,4.39h1.46a1.46,1.46,0,0,0,.85-.22.77.77,0,0,0,.28-.65h0a.78.78,0,0,0-.13-.48.76.76,0,0,0-.4-.29,2,2,0,0,0-.66-.1h-1.4V26.5h1.23a1.43,1.43,0,0,0,.84-.21.7.7,0,0,0,.28-.61h0a.65.65,0,0,0-.24-.55,1.07,1.07,0,0,0-.69-.2h-1.42v-.54h1.56a1.72,1.72,0,0,1,.74.15,1.25,1.25,0,0,1,.5.43,1.18,1.18,0,0,1,.18.65h0a1.07,1.07,0,0,1-.12.49,1.2,1.2,0,0,1-.32.39.9.9,0,0,1-.46.19v0a1.34,1.34,0,0,1,.62.2,1.12,1.12,0,0,1,.39.42,1.28,1.28,0,0,1,.14.59h0a1.36,1.36,0,0,1-.2.74,1.38,1.38,0,0,1-.58.48,2.15,2.15,0,0,1-.89.16h-1.56Z"/><path class="cls-3" d="M511.18,25.76h.56v.57h0a.82.82,0,0,1,.32-.47.89.89,0,0,1,.54-.17h.24v.58l-.13,0h-.19a.74.74,0,0,0-.4.1.69.69,0,0,0-.27.29,1,1,0,0,0-.09.44v2.22h-.6Z"/><path class="cls-3" d="M513.69,29.25a1,1,0,0,1-.41-.38,1,1,0,0,1-.15-.56h0a.9.9,0,0,1,.33-.73,1.65,1.65,0,0,1,.95-.3l1.32-.08v.46l-1.25.08a1,1,0,0,0-.55.17.48.48,0,0,0-.2.4h0a.48.48,0,0,0,.2.4.81.81,0,0,0,.51.15,1.19,1.19,0,0,0,.51-.11.93.93,0,0,0,.35-.33.8.8,0,0,0,.13-.46V26.91a.66.66,0,0,0-.2-.51.86.86,0,0,0-.58-.19.94.94,0,0,0-.55.15.61.61,0,0,0-.26.39v0h-.57v0a1.15,1.15,0,0,1,.2-.53,1.21,1.21,0,0,1,.48-.38,1.74,1.74,0,0,1,.72-.14,1.83,1.83,0,0,1,.73.14,1.1,1.1,0,0,1,.64,1v2.46h-.6v-.58h0a1.13,1.13,0,0,1-.27.34,1.29,1.29,0,0,1-.39.23,1.33,1.33,0,0,1-.45.08A1.49,1.49,0,0,1,513.69,29.25Z"/><path class="cls-3" d="M516.67,28.89l2-2.63h-2v-.49h2.64v.43l-2,2.62h2v.49h-2.66Z"/><path class="cls-3" d="M520.1,25.05a.36.36,0,0,1-.11-.27.33.33,0,0,1,.11-.26.36.36,0,0,1,.52,0,.33.33,0,0,1,.11.26.37.37,0,0,1-.63.27Zm0,.71h.6v3.55h-.6Z"/><path class="cls-3" d="M521.5,24.38h.59v4.93h-.59Z"/><path class="cls-3" d="M15,44.69h.62v4.94H15Zm.31,2.63H16.6a1.12,1.12,0,0,0,.82-.28,1,1,0,0,0,.29-.76h0a1,1,0,0,0-.29-.77,1.16,1.16,0,0,0-.82-.27H15.31v-.55h1.45a1.69,1.69,0,0,1,.82.2,1.5,1.5,0,0,1,.56.56,1.66,1.66,0,0,1,.2.82h0a1.69,1.69,0,0,1-.2.82,1.5,1.5,0,0,1-.56.56,1.59,1.59,0,0,1-.82.21H15.31Z"/><path class="cls-3" d="M19,44.69h.6v2h0a1.09,1.09,0,0,1,.43-.47A1.32,1.32,0,0,1,20.7,46a1.14,1.14,0,0,1,.66.19,1.28,1.28,0,0,1,.45.5,1.81,1.81,0,0,1,.16.76v2.18h-.6V47.55a1.09,1.09,0,0,0-.23-.75.8.8,0,0,0-.65-.27.86.86,0,0,0-.48.13.93.93,0,0,0-.32.36,1.12,1.12,0,0,0-.11.53v2.08H19Z"/><path class="cls-3" d="M23.33,49.47a1.54,1.54,0,0,1-.57-.64,2.17,2.17,0,0,1-.21-1h0a2.15,2.15,0,0,1,.21-1,1.51,1.51,0,0,1,.57-.63,1.74,1.74,0,0,1,1.73,0,1.51,1.51,0,0,1,.57.63,2.15,2.15,0,0,1,.21,1h0a2.15,2.15,0,0,1-.21,1,1.48,1.48,0,0,1-.57.64,1.62,1.62,0,0,1-.86.22A1.66,1.66,0,0,1,23.33,49.47ZM24.75,49a1,1,0,0,0,.35-.45,1.7,1.7,0,0,0,.13-.71h0a1.7,1.7,0,0,0-.13-.71,1,1,0,0,0-.36-.45,1,1,0,0,0-.55-.15,1,1,0,0,0-.54.15,1.08,1.08,0,0,0-.36.45,1.7,1.7,0,0,0-.13.71h0a1.7,1.7,0,0,0,.13.71,1,1,0,0,0,.36.45,1,1,0,0,0,1.1,0Z"/><path class="cls-3" d="M26.44,46.07H27v.51h0a1,1,0,0,1,.41-.41,1.32,1.32,0,0,1,.68-.17,1.17,1.17,0,0,1,.91.36,1.37,1.37,0,0,1,.32,1v2.31h-.59V47.42a1,1,0,0,0-.21-.66.78.78,0,0,0-.61-.23,1,1,0,0,0-.49.12.9.9,0,0,0-.32.35,1.15,1.15,0,0,0-.12.53v2.1h-.59Z"/><path class="cls-3" d="M30.71,49.47a1.46,1.46,0,0,1-.56-.64,2.24,2.24,0,0,1-.2-1h0a2.27,2.27,0,0,1,.2-1,1.51,1.51,0,0,1,1.4-.89,1.51,1.51,0,0,1,.84.23,1.49,1.49,0,0,1,.54.62,2.32,2.32,0,0,1,.19.94V48H30.25v-.47h2.57l-.3.44v-.23a1.71,1.71,0,0,0-.12-.69.92.92,0,0,0-.35-.4.91.91,0,0,0-.5-.13.94.94,0,0,0-.87.55,1.63,1.63,0,0,0-.13.67V48a1.55,1.55,0,0,0,.13.64,1,1,0,0,0,.37.41,1.18,1.18,0,0,0,1,.07.77.77,0,0,0,.29-.19.8.8,0,0,0,.18-.27v0h.58v0a1.05,1.05,0,0,1-.17.41,1.43,1.43,0,0,1-.31.34,1.35,1.35,0,0,1-.45.22,1.61,1.61,0,0,1-.54.08A1.67,1.67,0,0,1,30.71,49.47Z"/><path class="cls-3" d="M33.8,46.92a.41.41,0,1,1,.28.11A.41.41,0,0,1,33.8,46.92Zm0,2.64a.39.39,0,0,1-.11-.28A.37.37,0,0,1,33.8,49a.39.39,0,0,1,.56,0,.37.37,0,0,1,.11.27.39.39,0,0,1-.11.28.41.41,0,0,1-.56,0Z"/><path class="cls-3" d="M36.65,47.35h3.47v.55H36.65Zm1.46-1.46h.55v3.47h-.55Z"/><path class="cls-3" d="M41.75,49.53a1.5,1.5,0,0,1-.85-1.21v0h.61v0a.9.9,0,0,0,.18.44,1.06,1.06,0,0,0,.38.31,1.29,1.29,0,0,0,.53.11,1.15,1.15,0,0,0,.59-.15.94.94,0,0,0,.4-.39,1.15,1.15,0,0,0,.14-.59h0a1.07,1.07,0,0,0-.14-.57,1.1,1.1,0,0,0-.4-.4,1.21,1.21,0,0,0-.58-.14,1.35,1.35,0,0,0-.46.07,1,1,0,0,0-.38.23,1.59,1.59,0,0,0-.13.13.86.86,0,0,0-.1.16H41l.26-2.82h2.82v.55H41.75l-.17,1.66h0a1,1,0,0,1,.47-.38,1.51,1.51,0,0,1,.65-.13,1.64,1.64,0,0,1,.84.21,1.54,1.54,0,0,1,.58.58,1.69,1.69,0,0,1,.21.84h0a1.66,1.66,0,0,1-.23.87,1.53,1.53,0,0,1-.62.59,1.8,1.8,0,0,1-.91.22A1.92,1.92,0,0,1,41.75,49.53Z"/><path class="cls-3" d="M45.85,49.53a1.52,1.52,0,0,1-.59-.5,1.39,1.39,0,0,1-.26-.71v0h.6v0a.9.9,0,0,0,.18.44,1.15,1.15,0,0,0,.38.31,1.32,1.32,0,0,0,.53.11,1.16,1.16,0,0,0,.6-.15,1,1,0,0,0,.4-.39,1.25,1.25,0,0,0,.14-.59h0a1.13,1.13,0,0,0-.54-1,1.25,1.25,0,0,0-.59-.14,1.39,1.39,0,0,0-.46.07,1.14,1.14,0,0,0-.38.23l-.12.13a.91.91,0,0,0-.11.16h-.54l.25-2.82h2.82v.55H45.85l-.17,1.66h0a1.17,1.17,0,0,1,.47-.38,1.57,1.57,0,0,1,.65-.13,1.7,1.7,0,0,1,.85.21,1.59,1.59,0,0,1,.57.58,1.69,1.69,0,0,1,.21.84h0a1.66,1.66,0,0,1-.22.87,1.6,1.6,0,0,1-.62.59,1.83,1.83,0,0,1-.91.22A1.86,1.86,0,0,1,45.85,49.53Z"/><path class="cls-3" d="M50.52,49.2l1.74-1.81a6.8,6.8,0,0,0,.51-.58,1.36,1.36,0,0,0,.24-.4,1,1,0,0,0,.07-.39h0a.81.81,0,0,0-.12-.44.86.86,0,0,0-.32-.31,1.06,1.06,0,0,0-.48-.11,1.09,1.09,0,0,0-.55.13,1,1,0,0,0-.38.34.8.8,0,0,0-.14.48v0h-.6v0a1.44,1.44,0,0,1,.22-.77,1.62,1.62,0,0,1,.6-.53,2,2,0,0,1,.84-.19,1.74,1.74,0,0,1,.8.18,1.47,1.47,0,0,1,.55.5,1.26,1.26,0,0,1,.19.69h0a1.34,1.34,0,0,1-.1.52,2,2,0,0,1-.35.57,9.65,9.65,0,0,1-.7.78l-1.35,1.39.18-.38v.38l-.18-.17h2.59v.55H50.52Z"/><path class="cls-3" d="M55.75,45.35h0l-1.3.91v-.62l1.31-1h.6v4.94h-.59Z"/><path class="cls-3" d="M59.8,49.53a1.49,1.49,0,0,1-.6-.47,1.46,1.46,0,0,1-.26-.7v0h.59v0a.83.83,0,0,0,.34.6,1.36,1.36,0,0,0,.81.22,1.32,1.32,0,0,0,.57-.11.9.9,0,0,0,.38-.31.8.8,0,0,0,.13-.46h0a.87.87,0,0,0-.3-.7,1.27,1.27,0,0,0-.82-.24H60v-.52h.59a1.21,1.21,0,0,0,.52-.11.88.88,0,0,0,.35-.31.71.71,0,0,0,.13-.43h0a.87.87,0,0,0-.11-.44.68.68,0,0,0-.32-.28,1.29,1.29,0,0,0-.51-.09,1.42,1.42,0,0,0-.52.09.92.92,0,0,0-.36.28.91.91,0,0,0-.17.43v0H59v0a1.48,1.48,0,0,1,.26-.7,1.39,1.39,0,0,1,.57-.47,1.86,1.86,0,0,1,.81-.17,2,2,0,0,1,.82.16,1.3,1.3,0,0,1,.55.45,1.22,1.22,0,0,1,.19.66h0a1.08,1.08,0,0,1-.13.54,1.15,1.15,0,0,1-.37.39,1.6,1.6,0,0,1-.55.23h0a1.43,1.43,0,0,1,.88.36,1.15,1.15,0,0,1,.33.85h0a1.26,1.26,0,0,1-.22.73,1.46,1.46,0,0,1-.61.51,1.93,1.93,0,0,1-.88.19A2,2,0,0,1,59.8,49.53Z"/><path class="cls-3" d="M63.94,49.53a1.51,1.51,0,0,1-.63-.5,1.21,1.21,0,0,1-.23-.74h0a1.22,1.22,0,0,1,.13-.57,1.3,1.3,0,0,1,.37-.44,1.36,1.36,0,0,1,.56-.25v0a1.27,1.27,0,0,1-.65-.42,1,1,0,0,1-.24-.68h0a1.13,1.13,0,0,1,.21-.67,1.42,1.42,0,0,1,.58-.46,2.11,2.11,0,0,1,1.66,0,1.45,1.45,0,0,1,.57.46,1.13,1.13,0,0,1,.21.67h0a1,1,0,0,1-.24.68,1.25,1.25,0,0,1-.64.42v0a1.36,1.36,0,0,1,.56.25,1.43,1.43,0,0,1,.37.44,1.36,1.36,0,0,1,.13.57h0a1.27,1.27,0,0,1-.23.74,1.51,1.51,0,0,1-.63.5,2.49,2.49,0,0,1-1.86,0Zm1.53-.48a1,1,0,0,0,.41-.32.8.8,0,0,0,.15-.47h0a.81.81,0,0,0-.15-.48.91.91,0,0,0-.41-.33,1.4,1.4,0,0,0-.6-.12,1.48,1.48,0,0,0-.61.12,1,1,0,0,0-.41.33.81.81,0,0,0-.15.48h0a.8.8,0,0,0,.15.47,1,1,0,0,0,.42.32,1.56,1.56,0,0,0,1.2,0Zm-.08-2.37a.84.84,0,0,0,.35-.29.7.7,0,0,0,.13-.42h0a.68.68,0,0,0-.13-.42.77.77,0,0,0-.35-.29,1.21,1.21,0,0,0-.52-.11,1.29,1.29,0,0,0-.53.11.83.83,0,0,0-.35.29.74.74,0,0,0-.12.42h0a.76.76,0,0,0,.12.42.91.91,0,0,0,.35.29,1.29,1.29,0,0,0,.53.1A1.21,1.21,0,0,0,65.39,46.68Z"/><path class="cls-3" d="M68.14,49.53a1.61,1.61,0,0,1-.64-.5,1.27,1.27,0,0,1-.23-.74h0a1.23,1.23,0,0,1,.14-.57,1.3,1.3,0,0,1,.37-.44,1.32,1.32,0,0,1,.55-.25v0a1.25,1.25,0,0,1-.64-.42,1,1,0,0,1-.24-.68h0a1.13,1.13,0,0,1,.21-.67,1.45,1.45,0,0,1,.57-.46,2,2,0,0,1,.84-.17,2,2,0,0,1,.83.17,1.45,1.45,0,0,1,.57.46,1.13,1.13,0,0,1,.21.67h0a1,1,0,0,1-.24.68,1.25,1.25,0,0,1-.64.42v0a1.32,1.32,0,0,1,.55.25,1.3,1.3,0,0,1,.37.44,1.23,1.23,0,0,1,.14.57h0a1.27,1.27,0,0,1-.23.74,1.61,1.61,0,0,1-.64.5,2.47,2.47,0,0,1-1.85,0Zm1.53-.48a1,1,0,0,0,.41-.32.8.8,0,0,0,.15-.47h0a.81.81,0,0,0-.15-.48,1,1,0,0,0-.41-.33,1.43,1.43,0,0,0-.6-.12,1.48,1.48,0,0,0-.61.12,1,1,0,0,0-.41.33.81.81,0,0,0-.15.48h0a.8.8,0,0,0,.15.47,1,1,0,0,0,.41.32,1.59,1.59,0,0,0,1.21,0Zm-.08-2.37a.84.84,0,0,0,.35-.29.77.77,0,0,0,.13-.42h0a.75.75,0,0,0-.13-.42.77.77,0,0,0-.35-.29,1.24,1.24,0,0,0-.52-.11,1.25,1.25,0,0,0-.53.11.77.77,0,0,0-.35.29.75.75,0,0,0-.13.42h0a.77.77,0,0,0,.13.42.84.84,0,0,0,.35.29,1.25,1.25,0,0,0,.53.1A1.24,1.24,0,0,0,69.59,46.68Z"/><path class="cls-3" d="M74,44.74a1.63,1.63,0,0,1,.61.42,2.08,2.08,0,0,1,.43.75,3.57,3.57,0,0,1,.16,1.16h0A4,4,0,0,1,75,48.5a2,2,0,0,1-.66.9,1.75,1.75,0,0,1-1,.31,1.87,1.87,0,0,1-.76-.15,1.51,1.51,0,0,1-.87-1.05v0h.63v0a1.07,1.07,0,0,0,.21.36,1.11,1.11,0,0,0,.34.22,1.14,1.14,0,0,0,.46.09,1.12,1.12,0,0,0,.61-.17,1.21,1.21,0,0,0,.4-.46,2.44,2.44,0,0,0,.23-.66,4.71,4.71,0,0,0,.07-.78l-.15-.81a1.1,1.1,0,0,0-.15-.57,1.12,1.12,0,0,0-.4-.41,1.16,1.16,0,0,0-1.14,0,1.12,1.12,0,0,0-.41.4,1.09,1.09,0,0,0-.15.56h0a1.2,1.2,0,0,0,.14.57,1,1,0,0,0,.4.39,1.11,1.11,0,0,0,.58.14,1.13,1.13,0,0,0,.58-.14,1,1,0,0,0,.4-.38,1.07,1.07,0,0,0,.15-.56h.21v.84h-.08a1.11,1.11,0,0,1-.29.4,1.73,1.73,0,0,1-1.92.18,1.47,1.47,0,0,1-.58-.58,1.57,1.57,0,0,1-.22-.84h0a1.69,1.69,0,0,1,.23-.87,1.6,1.6,0,0,1,.62-.59,1.77,1.77,0,0,1,.9-.22A1.74,1.74,0,0,1,74,44.74Z"/><path class="cls-3" d="M75.89,47.35h2.19v.55H75.89Z"/><path class="cls-3" d="M79.74,49.53a1.6,1.6,0,0,1-.59-.5,1.49,1.49,0,0,1-.26-.71v0h.6v0a1,1,0,0,0,.17.44,1.1,1.1,0,0,0,.39.31,1.25,1.25,0,0,0,.53.11,1.15,1.15,0,0,0,.59-.15,1,1,0,0,0,.4-.39,1.25,1.25,0,0,0,.14-.59h0a1.17,1.17,0,0,0-.14-.57,1.1,1.1,0,0,0-.4-.4,1.21,1.21,0,0,0-.58-.14,1.45,1.45,0,0,0-.47.07,1.1,1.1,0,0,0-.37.23.8.8,0,0,0-.13.13l-.11.16H79l.25-2.82h2.83v.55H79.74l-.17,1.66h0a1.07,1.07,0,0,1,.46-.38,1.59,1.59,0,0,1,.66-.13,1.69,1.69,0,0,1,.84.21,1.61,1.61,0,0,1,.58.58,1.69,1.69,0,0,1,.21.84h0a1.66,1.66,0,0,1-.23.87,1.6,1.6,0,0,1-.62.59,1.8,1.8,0,0,1-.91.22A1.92,1.92,0,0,1,79.74,49.53Z"/><path class="cls-3" d="M83,49.2l1.74-1.81a6.8,6.8,0,0,0,.51-.58,1.62,1.62,0,0,0,.24-.4,1.23,1.23,0,0,0,.07-.39h0a.81.81,0,0,0-.12-.44.82.82,0,0,0-.33-.31,1,1,0,0,0-.47-.11,1.09,1.09,0,0,0-.55.13,1.07,1.07,0,0,0-.39.34.87.87,0,0,0-.14.48v0H83v0a1.36,1.36,0,0,1,.22-.77,1.62,1.62,0,0,1,.6-.53,1.92,1.92,0,0,1,.84-.19,1.67,1.67,0,0,1,.79.18,1.34,1.34,0,0,1,.55.5,1.27,1.27,0,0,1,.2.69h0a1.34,1.34,0,0,1-.1.52,2.31,2.31,0,0,1-.35.57c-.17.21-.4.47-.7.78l-1.36,1.39.18-.38v.38l-.18-.17h2.6v.55H83Z"/><path class="cls-3" d="M87.69,49.4a1.93,1.93,0,0,1-.62-.88,4,4,0,0,1-.21-1.36h0a3.93,3.93,0,0,1,.21-1.36,1.93,1.93,0,0,1,.62-.88,1.69,1.69,0,0,1,2,0,1.93,1.93,0,0,1,.62.88,3.69,3.69,0,0,1,.22,1.36h0a3.77,3.77,0,0,1-.22,1.36,1.93,1.93,0,0,1-.62.88,1.69,1.69,0,0,1-2,0Zm1.62-.47a1.65,1.65,0,0,0,.41-.7,3.75,3.75,0,0,0,.14-1.07h0a3.7,3.7,0,0,0-.14-1.07,1.65,1.65,0,0,0-.41-.7,1,1,0,0,0-.65-.24.93.93,0,0,0-.64.24,1.65,1.65,0,0,0-.41.7,3.7,3.7,0,0,0-.14,1.07h0a3.75,3.75,0,0,0,.14,1.07,1.65,1.65,0,0,0,.41.7.93.93,0,0,0,.64.24A1,1,0,0,0,89.31,48.93Z"/><path class="cls-3" d="M91.94,49.4a1.93,1.93,0,0,1-.62-.88,3.77,3.77,0,0,1-.22-1.36h0a3.69,3.69,0,0,1,.22-1.36,1.93,1.93,0,0,1,.62-.88,1.67,1.67,0,0,1,1.94,0,2,2,0,0,1,.63.88,3.93,3.93,0,0,1,.21,1.36h0a4,4,0,0,1-.21,1.36,2,2,0,0,1-.63.88,1.67,1.67,0,0,1-1.94,0Zm1.61-.47a1.55,1.55,0,0,0,.41-.7,3.41,3.41,0,0,0,.15-1.07h0A3.37,3.37,0,0,0,94,46.09a1.55,1.55,0,0,0-.41-.7.93.93,0,0,0-.64-.24.91.91,0,0,0-.64.24,1.55,1.55,0,0,0-.41.7,3.7,3.7,0,0,0-.14,1.07h0a3.75,3.75,0,0,0,.14,1.07,1.55,1.55,0,0,0,.41.7.91.91,0,0,0,.64.24A.93.93,0,0,0,93.55,48.93Z"/><path class="cls-3" d="M463.26,46.07h.59l.71,2.89h0l.8-2.89H466l.81,2.89h0l.71-2.89h.59l-1,3.56h-.6l-.81-2.76h0l-.8,2.76h-.61Z"/><path class="cls-3" d="M468.27,46.07h.59l.71,2.89h0l.8-2.89H471l.81,2.89h0l.71-2.89h.59l-1,3.56h-.61l-.8-2.76h0l-.79,2.76h-.61Z"/><path class="cls-3" d="M473.27,46.07h.6l.71,2.89h0l.8-2.89H476l.8,2.89h0l.71-2.89h.59l-1,3.56h-.6l-.8-2.76h0l-.8,2.76h-.6Z"/><path class="cls-3" d="M478.25,49.56a.39.39,0,0,1-.11-.28.37.37,0,0,1,.11-.27.38.38,0,0,1,.28-.12.41.41,0,0,1,.39.39.36.36,0,0,1-.12.28.33.33,0,0,1-.27.11A.37.37,0,0,1,478.25,49.56Z"/><path class="cls-3" d="M479.67,46.07h.59v.51h0a1.1,1.1,0,0,1,.42-.41,1.29,1.29,0,0,1,.68-.17,1.17,1.17,0,0,1,.91.36,1.37,1.37,0,0,1,.32,1v2.31H482V47.42a1,1,0,0,0-.2-.66.79.79,0,0,0-.61-.23,1,1,0,0,0-.49.12.93.93,0,0,0-.33.35,1.29,1.29,0,0,0-.11.53v2.1h-.59Z"/><path class="cls-3" d="M484,49.47a1.54,1.54,0,0,1-.57-.64,2.17,2.17,0,0,1-.21-1h0a2.15,2.15,0,0,1,.21-1,1.51,1.51,0,0,1,.57-.63,1.74,1.74,0,0,1,1.73,0,1.51,1.51,0,0,1,.57.63,2.15,2.15,0,0,1,.21,1h0a2.15,2.15,0,0,1-.21,1,1.48,1.48,0,0,1-.57.64,1.81,1.81,0,0,1-1.73,0Zm1.41-.46a.91.91,0,0,0,.36-.45,1.7,1.7,0,0,0,.13-.71h0a1.7,1.7,0,0,0-.13-.71,1,1,0,0,0-.36-.45,1,1,0,0,0-.55-.15.92.92,0,0,0-.9.6,1.7,1.7,0,0,0-.13.71h0a1.7,1.7,0,0,0,.13.71.91.91,0,0,0,.36.45.94.94,0,0,0,.55.16A.89.89,0,0,0,485.37,49Z"/><path class="cls-3" d="M486.62,46.07h.63l1,2.92h0l1-2.92h.62l-1.31,3.56h-.61Z"/><path class="cls-3" d="M490.66,49.56a1,1,0,0,1-.41-.38,1,1,0,0,1-.15-.56h0a.86.86,0,0,1,.34-.72,1.6,1.6,0,0,1,.95-.31l1.31-.07V48l-1.24.07a1,1,0,0,0-.55.17.47.47,0,0,0-.2.4h0a.49.49,0,0,0,.19.41.82.82,0,0,0,.52.15,1.06,1.06,0,0,0,.5-.12,1,1,0,0,0,.36-.32.91.91,0,0,0,.13-.46V47.23a.64.64,0,0,0-.21-.51.77.77,0,0,0-.57-.19.92.92,0,0,0-.55.15.67.67,0,0,0-.27.39v0h-.58v0a.94.94,0,0,1,.2-.53,1.22,1.22,0,0,1,.47-.39,1.81,1.81,0,0,1,.72-.14,1.64,1.64,0,0,1,.73.15,1,1,0,0,1,.47.4,1.07,1.07,0,0,1,.17.62v2.46h-.59v-.58h0a1.1,1.1,0,0,1-.27.34,1.11,1.11,0,0,1-.38.22,1.21,1.21,0,0,1-.46.08A1.38,1.38,0,0,1,490.66,49.56Z"/><path class="cls-3" d="M494.18,49.56a1,1,0,0,1-.42-.38,1,1,0,0,1-.15-.56h0a.89.89,0,0,1,.34-.72,1.63,1.63,0,0,1,.95-.31l1.32-.07V48L495,48a1,1,0,0,0-.55.17.49.49,0,0,0-.2.4h0a.52.52,0,0,0,.19.41.84.84,0,0,0,.52.15,1,1,0,0,0,.5-.12,1,1,0,0,0,.36-.32.82.82,0,0,0,.13-.46V47.23a.66.66,0,0,0-.2-.51.81.81,0,0,0-.58-.19.92.92,0,0,0-.55.15.61.61,0,0,0-.26.39v0h-.57v0a1,1,0,0,1,.2-.53,1.25,1.25,0,0,1,.48-.39,1.74,1.74,0,0,1,.72-.14,1.59,1.59,0,0,1,.72.15,1.06,1.06,0,0,1,.48.4,1.15,1.15,0,0,1,.17.62v2.46h-.6v-.58h0a1.13,1.13,0,0,1-.28.34,1.29,1.29,0,0,1-.83.3A1.35,1.35,0,0,1,494.18,49.56Z"/><path class="cls-3" d="M498.06,49.53a1.36,1.36,0,0,1-.6-.47,1.46,1.46,0,0,1-.26-.7v0h.59v0a.87.87,0,0,0,.35.6,1.36,1.36,0,0,0,.81.22,1.25,1.25,0,0,0,.56-.11.93.93,0,0,0,.39-.31.8.8,0,0,0,.13-.46h0a.87.87,0,0,0-.3-.7,1.29,1.29,0,0,0-.82-.24h-.62v-.52h.59a1.21,1.21,0,0,0,.52-.11.88.88,0,0,0,.35-.31.71.71,0,0,0,.13-.43h0a.87.87,0,0,0-.11-.44.68.68,0,0,0-.32-.28,1.29,1.29,0,0,0-.51-.09,1.42,1.42,0,0,0-.52.09.92.92,0,0,0-.36.28.91.91,0,0,0-.17.43v0h-.59v0a1.38,1.38,0,0,1,.26-.7,1.43,1.43,0,0,1,.56-.47,1.94,1.94,0,0,1,.82-.17,2.07,2.07,0,0,1,.82.16,1.27,1.27,0,0,1,.54.45,1.14,1.14,0,0,1,.2.66h0a1.09,1.09,0,0,1-.14.54,1,1,0,0,1-.36.39,1.6,1.6,0,0,1-.55.23h0a1.43,1.43,0,0,1,.88.36,1.15,1.15,0,0,1,.33.85h0a1.33,1.33,0,0,1-.22.73,1.52,1.52,0,0,1-.61.51,1.93,1.93,0,0,1-.88.19A2,2,0,0,1,498.06,49.53Z"/><path class="cls-3" d="M501.4,49.56a.39.39,0,0,1-.11-.28.37.37,0,0,1,.11-.27.38.38,0,0,1,.28-.12.41.41,0,0,1,.39.39.36.36,0,0,1-.12.28.33.33,0,0,1-.27.11A.37.37,0,0,1,501.4,49.56Z"/><path class="cls-3" d="M503.21,49.47a1.45,1.45,0,0,1-.57-.65,2.12,2.12,0,0,1-.2-1h0a2.1,2.1,0,0,1,.2-1,1.55,1.55,0,0,1,.57-.64,1.66,1.66,0,0,1,.87-.23,1.53,1.53,0,0,1,.76.18,1.34,1.34,0,0,1,.5.44,1.42,1.42,0,0,1,.22.58v0H505v0a1,1,0,0,0-.29-.47.9.9,0,0,0-.61-.2.89.89,0,0,0-.54.16,1.07,1.07,0,0,0-.37.46,1.86,1.86,0,0,0-.13.7h0a1.7,1.7,0,0,0,.14.71.91.91,0,0,0,.36.45.93.93,0,0,0,.54.16.9.9,0,0,0,.6-.19.86.86,0,0,0,.3-.48v0h.58v0a1.45,1.45,0,0,1-.25.6,1.39,1.39,0,0,1-.52.44,1.82,1.82,0,0,1-1.59-.07Z"/><path class="cls-3" d="M506.73,49.47a1.56,1.56,0,0,1-.58-.64,2.17,2.17,0,0,1-.21-1h0a2.15,2.15,0,0,1,.21-1,1.54,1.54,0,0,1,.58-.63,1.6,1.6,0,0,1,.86-.23,1.65,1.65,0,0,1,.86.23,1.54,1.54,0,0,1,.58.63,2.28,2.28,0,0,1,.2,1h0a2.28,2.28,0,0,1-.2,1,1.5,1.5,0,0,1-.58.64,1.62,1.62,0,0,1-.86.22A1.6,1.6,0,0,1,506.73,49.47Zm1.41-.46a1,1,0,0,0,.36-.45,1.88,1.88,0,0,0,.12-.71h0a1.88,1.88,0,0,0-.12-.71,1,1,0,0,0-.37-.45,1,1,0,0,0-.54-.15,1,1,0,0,0-.55.15,1.16,1.16,0,0,0-.36.45,1.7,1.7,0,0,0-.13.71h0a1.7,1.7,0,0,0,.13.71A1,1,0,0,0,507,49a1,1,0,0,0,1.1,0Z"/><path class="cls-3" d="M509.83,46.07h.6v.52h0a.91.91,0,0,1,.38-.42,1.07,1.07,0,0,1,.59-.17,1.19,1.19,0,0,1,.44.08,1,1,0,0,1,.56.61h0a1,1,0,0,1,.26-.37,1.36,1.36,0,0,1,.38-.24,1.45,1.45,0,0,1,.47-.08,1.2,1.2,0,0,1,.61.15,1,1,0,0,1,.4.4,1.24,1.24,0,0,1,.15.62v2.46h-.6V47.31a.77.77,0,0,0-.19-.57.7.7,0,0,0-.54-.21.82.82,0,0,0-.42.11.81.81,0,0,0-.29.29,1.05,1.05,0,0,0-.1.44v2.26H512V47.24a.67.67,0,0,0-.73-.71.82.82,0,0,0-.42.11.86.86,0,0,0-.29.31.93.93,0,0,0-.1.45v2.23h-.6Z"/><path class="cls-3" d="M515.54,49.56a.39.39,0,0,1-.11-.28.37.37,0,0,1,.11-.27.39.39,0,0,1,.56,0,.37.37,0,0,1,.11.27.39.39,0,0,1-.11.28.41.41,0,0,1-.56,0Z"/><path class="cls-3" d="M518.05,49.51a1.19,1.19,0,0,1-.45-.49h0v.61H517V44.69h.59v2h0a1.21,1.21,0,0,1,.46-.49,1.3,1.3,0,0,1,.68-.18,1.38,1.38,0,0,1,.78.23,1.53,1.53,0,0,1,.53.64,2.43,2.43,0,0,1,.19,1h0a2.4,2.4,0,0,1-.19,1,1.5,1.5,0,0,1-.53.65,1.4,1.4,0,0,1-.79.22A1.28,1.28,0,0,1,518.05,49.51Zm1.1-.5a1,1,0,0,0,.35-.46,1.68,1.68,0,0,0,.13-.7h0a1.68,1.68,0,0,0-.13-.7,1,1,0,0,0-.35-.45.89.89,0,0,0-.54-.16.88.88,0,0,0-.53.16,1.13,1.13,0,0,0-.37.46,1.67,1.67,0,0,0-.13.69h0a1.67,1.67,0,0,0,.13.69,1.07,1.07,0,0,0,.37.46.95.95,0,0,0,1.07,0Z"/><path class="cls-3" d="M520.83,46.07h.57v.58h0a.89.89,0,0,1,.86-.65h.14l.1,0v.57l-.12,0h-.2a.88.88,0,0,0-.4.1.75.75,0,0,0-.27.29,1,1,0,0,0-.09.44v2.23h-.6Z"/></svg>